<svg xmlns="http://www.w3.org/2000/svg" viewBox="1952.9 1655.7 554.3 538.8"><path fill="none" stroke-width="0.70866" stroke-linecap="round" stroke-linejoin="round" stroke="#e8eaed" stroke-opacity="1" stroke-dasharray="24.101 6.026" stroke-miterlimit="10" d="M 2251.299902 260.098935 L 2260.700913 206.701505 " transform="matrix(0.999726, 0, 0, -0.999726, 0, 2389.082419)"/><path fill="none" stroke-width="0.70866" stroke-linecap="round" stroke-linejoin="round" stroke="#e8eaed" stroke-opacity="1" stroke-dasharray="19.971 4.992" stroke-miterlimit="10" d="M 2298.500323 396.10101 L 2290.701313 440.398293 " transform="matrix(0.999726, 0, 0, -0.999726, 0, 2389.082419)"/><path fill="none" stroke-width="0.70866" stroke-linecap="round" stroke-linejoin="round" stroke="#e8eaed" stroke-opacity="1" stroke-dasharray="23.469 5.868" stroke-miterlimit="10" d="M 2337.698554 425.89823 L 2112.398596 386.098272 " transform="matrix(0.999726, 0, 0, -0.999726, 0, 2389.082419)"/><path fill="none" stroke-width="0.70866" stroke-linecap="round" stroke-linejoin="round" stroke="#e8eaed" stroke-opacity="1" stroke-dasharray="21.797 5.45" stroke-miterlimit="10" d="M 2235.901155 514.699884 L 2284.199534 523.198304 " transform="matrix(0.999726, 0, 0, -0.999726, 0, 2389.082419)"/><path fill="none" stroke-width="0.70866" stroke-linecap="round" stroke-linejoin="round" stroke="#e8eaed" stroke-opacity="1" stroke-dasharray="19.971 4.992" stroke-miterlimit="10" d="M 2255.199407 540.898462 L 2262.998417 496.601179 " transform="matrix(0.999726, 0, 0, -0.999726, 0, 2389.082419)"/><path fill="none" stroke-width="0.70866" stroke-linecap="round" stroke-linejoin="round" stroke="#e8eaed" stroke-opacity="1" stroke-dasharray="19.971 4.992" stroke-miterlimit="10" d="M 2256.199681 434.298967 L 2263.998691 390.001684 " transform="matrix(0.999726, 0, 0, -0.999726, 0, 2389.082419)"/><path fill="none" stroke-width="0.70866" stroke-linecap="round" stroke-linejoin="round" stroke="#e8eaed" stroke-opacity="1" stroke-dasharray="19.971 4.992" stroke-miterlimit="10" d="M 2229.500966 383.898451 L 2221.698048 428.199641 " transform="matrix(0.999726, 0, 0, -0.999726, 0, 2389.082419)"/><path fill="none" stroke-width="0.70866" stroke-linecap="round" stroke-linejoin="round" stroke="#e8eaed" stroke-opacity="1" stroke-dasharray="19.971 4.992" stroke-miterlimit="10" d="M 2187.200323 422.100315 L 2194.999333 377.900715 " transform="matrix(0.999726, 0, 0, -0.999726, 0, 2389.082419)"/><path fill="none" stroke-width="0.70866" stroke-linecap="round" stroke-linejoin="round" stroke="#e8eaed" stroke-opacity="1" stroke-dasharray="19.971 4.992" stroke-miterlimit="10" d="M 2160.400018 371.801389 L 2152.601008 416.000989 " transform="matrix(0.999726, 0, 0, -0.999726, 0, 2389.082419)"/><path fill="none" stroke-width="0.70866" stroke-linecap="round" stroke-linejoin="round" stroke="#e8eaed" stroke-opacity="1" stroke-dasharray="28.198 7.05" stroke-miterlimit="10" d="M 2218.29868 226.89844 L 2280.800165 237.901452 " transform="matrix(0.999726, 0, 0, -0.999726, 0, 2389.082419)"/><path fill="none" stroke-width="0.70866" stroke-linecap="round" stroke-linejoin="round" stroke="#e8eaed" stroke-opacity="1" stroke-dasharray="16.245 16.245" stroke-miterlimit="10" d="M 2243.801756 225.300346 L 2178.901176 391.799051 " transform="matrix(0.999726, 0, 0, -0.999726, 0, 2389.082419)"/><path fill="none" stroke-width="0.70866" stroke-linecap="round" stroke-linejoin="round" stroke="#e8eaed" stroke-opacity="1" stroke-dasharray="21.797 5.45" stroke-miterlimit="10" d="M 2184.101819 505.498146 L 2232.400197 514.098156 " transform="matrix(0.999726, 0, 0, -0.999726, 0, 2389.082419)"/><path fill="none" stroke-width="0.70866" stroke-linecap="round" stroke-linejoin="round" stroke="#e8eaed" stroke-opacity="1" stroke-dasharray="19.971 4.992" stroke-miterlimit="10" d="M 2203.40007 531.700631 L 2211.19908 487.501031 " transform="matrix(0.999726, 0, 0, -0.999726, 0, 2389.082419)"/><path fill="none" stroke-width="0.70866" stroke-linecap="round" stroke-linejoin="round" stroke="#e8eaed" stroke-opacity="1" stroke-miterlimit="10" d="M 2220.998638 221.900978 L 2227.898965 233.50181 " transform="matrix(0.999726, 0, 0, -0.999726, 0, 2389.082419)"/><path fill="none" stroke-width="0.70866" stroke-linecap="round" stroke-linejoin="round" stroke="#e8eaed" stroke-opacity="1" stroke-miterlimit="10" d="M 2220.600091 232.099082 L 2228.899238 223.799935 " transform="matrix(0.999726, 0, 0, -0.999726, 0, 2389.082419)"/><path fill="none" stroke-width="0.70866" stroke-linecap="round" stroke-linejoin="round" stroke="#e8eaed" stroke-opacity="1" stroke-miterlimit="10" d="M 2121.498743 382.401947 L 2128.39907 393.998872 " transform="matrix(0.999726, 0, 0, -0.999726, 0, 2389.082419)"/><path fill="none" stroke-width="0.70866" stroke-linecap="round" stroke-linejoin="round" stroke="#e8eaed" stroke-opacity="1" stroke-miterlimit="10" d="M 2121.100196 392.600052 L 2130.001071 383.300631 " transform="matrix(0.999726, 0, 0, -0.999726, 0, 2389.082419)"/><path fill="none" stroke-width="0.70866" stroke-linecap="round" stroke-linejoin="round" stroke="#e8eaed" stroke-opacity="1" stroke-miterlimit="10" d="M 2239.398206 408.600526 L 2270.199607 230.000852 " transform="matrix(0.999726, 0, 0, -0.999726, 0, 2389.082419)"/><path fill="none" stroke-width="0.70866" stroke-linecap="round" stroke-linejoin="round" stroke="#e8eaed" stroke-opacity="1" stroke-miterlimit="10" d="M 2224.69887 228.000304 L 2205.099754 400.598335 " transform="matrix(0.999726, 0, 0, -0.999726, 0, 2389.082419)"/><path fill="none" stroke-width="0.70866" stroke-linecap="round" stroke-linejoin="round" stroke="#e8eaed" stroke-opacity="1" stroke-miterlimit="10" d="M 2155.500239 538.800231 L 2205.498301 530.501084 " transform="matrix(0.999726, 0, 0, -0.999726, 0, 2389.082419)"/><path fill="none" stroke-width="0.70866" stroke-linecap="round" stroke-linejoin="round" stroke="#e8eaed" stroke-opacity="1" stroke-miterlimit="10" d="M 2221.100228 512.101516 L 2239.398206 408.600526 " transform="matrix(0.999726, 0, 0, -0.999726, 0, 2389.082419)"/><path fill="none" stroke-width="1.41732" stroke-linecap="round" stroke-linejoin="round" stroke="#e8eaed" stroke-opacity="1" stroke-miterlimit="10" d="M 2114.700007 560.501485 L 2495.800429 560.501485 " transform="matrix(0.999726, 0, 0, -0.999726, 0, 2389.082419)"/><path fill="none" stroke-width="0.70866" stroke-linecap="round" stroke-linejoin="round" stroke="#e8eaed" stroke-opacity="1" stroke-miterlimit="10" d="M 2267.800513 242.898914 L 2266.198512 245.899735 L 2264.100281 248.900557 L 2262.099734 250.998787 " transform="matrix(0.999726, 0, 0, -0.999726, 0, 2389.082419)"/><path fill="none" stroke-width="0.70866" stroke-linecap="round" stroke-linejoin="round" stroke="#e8eaed" stroke-opacity="1" stroke-miterlimit="10" d="M 2269.801061 225.300346 L 2270.301198 228.699714 L 2270.301198 232.099082 L 2269.898744 235.49845 L 2269.199333 238.901726 L 2267.999786 242.301094 L 2267.800513 242.898914 " transform="matrix(0.999726, 0, 0, -0.999726, 0, 2389.082419)"/><path fill="none" stroke-width="0.70866" stroke-linecap="round" stroke-linejoin="round" stroke="#e8eaed" stroke-opacity="1" stroke-miterlimit="10" d="M 2264.201872 214.899061 L 2266.600966 217.399746 L 2268.101377 219.90043 L 2269.199333 222.401115 L 2269.69947 224.901799 L 2269.801061 225.300346 " transform="matrix(0.999726, 0, 0, -0.999726, 0, 2389.082419)"/><path fill="none" stroke-width="0.70866" stroke-linecap="round" stroke-linejoin="round" stroke="#e8eaed" stroke-opacity="1" stroke-miterlimit="10" d="M 2254.69927 213.300967 L 2256.598227 212.80083 L 2258.501092 212.69924 L 2260.400049 213.000104 L 2262.299007 213.699514 L 2264.201872 214.899061 " transform="matrix(0.999726, 0, 0, -0.999726, 0, 2389.082419)"/><path fill="none" stroke-width="0.70866" stroke-linecap="round" stroke-linejoin="round" stroke="#e8eaed" stroke-opacity="1" stroke-miterlimit="10" d="M 2246.001577 221.099977 L 2247.49808 218.599293 L 2249.901082 216.098608 L 2252.401766 214.398924 L 2254.80086 213.300967 " transform="matrix(0.999726, 0, 0, -0.999726, 0, 2389.082419)"/><path fill="none" stroke-width="0.70866" stroke-linecap="round" stroke-linejoin="round" stroke="#e8eaed" stroke-opacity="1" stroke-miterlimit="10" d="M 2241.801208 238.401589 L 2241.801208 234.90063 L 2242.199755 231.399672 L 2243.000755 227.898714 L 2244.301893 224.401663 L 2245.899986 221.099977 " transform="matrix(0.999726, 0, 0, -0.999726, 0, 2389.082419)"/><path fill="none" stroke-width="0.70866" stroke-linecap="round" stroke-linejoin="round" stroke="#e8eaed" stroke-opacity="1" stroke-miterlimit="10" d="M 2244.399576 247.900283 L 2243.200028 244.899461 L 2242.301345 241.89864 L 2241.898891 238.901726 L 2241.898891 238.401589 " transform="matrix(0.999726, 0, 0, -0.999726, 0, 2389.082419)"/><path fill="none" stroke-width="0.70866" stroke-linecap="round" stroke-linejoin="round" stroke="#e8eaed" stroke-opacity="1" stroke-miterlimit="10" d="M 2262.201324 250.998787 L 2260.200776 252.600788 L 2258.200229 253.698745 L 2256.199681 254.198882 L 2254.199133 254.398156 L 2252.198586 254.198882 L 2250.201945 253.601062 L 2248.201398 252.499198 L 2246.20085 250.701831 L 2244.798122 248.701283 L 2244.399576 247.798693 " transform="matrix(0.999726, 0, 0, -0.999726, 0, 2389.082419)"/><path fill="none" stroke-width="0.70866" stroke-linecap="round" stroke-linejoin="round" stroke="#e8eaed" stroke-opacity="1" stroke-miterlimit="10" d="M 2306.400924 427.699504 L 2304.798923 430.700326 L 2302.700692 433.701147 L 2300.700144 435.799378 " transform="matrix(0.999726, 0, 0, -0.999726, 0, 2389.082419)"/><path fill="none" stroke-width="0.70866" stroke-linecap="round" stroke-linejoin="round" stroke="#e8eaed" stroke-opacity="1" stroke-miterlimit="10" d="M 2308.401471 410.100936 L 2308.901608 413.500305 L 2308.901608 416.899673 L 2308.499154 420.299041 L 2307.799744 423.698409 L 2306.600197 427.101684 L 2306.400924 427.699504 " transform="matrix(0.999726, 0, 0, -0.999726, 0, 2389.082419)"/><path fill="none" stroke-width="0.70866" stroke-linecap="round" stroke-linejoin="round" stroke="#e8eaed" stroke-opacity="1" stroke-miterlimit="10" d="M 2302.798375 399.699652 L 2305.201377 402.200336 L 2306.701787 404.701021 L 2307.799744 407.201705 L 2308.299881 409.698483 L 2308.401471 410.100936 " transform="matrix(0.999726, 0, 0, -0.999726, 0, 2389.082419)"/><path fill="none" stroke-width="0.70866" stroke-linecap="round" stroke-linejoin="round" stroke="#e8eaed" stroke-opacity="1" stroke-miterlimit="10" d="M 2293.299681 397.999967 L 2295.198638 397.499831 L 2297.101503 397.39824 L 2299.00046 397.699104 L 2300.899418 398.398514 L 2302.798375 399.598061 " transform="matrix(0.999726, 0, 0, -0.999726, 0, 2389.082419)"/><path fill="none" stroke-width="0.70866" stroke-linecap="round" stroke-linejoin="round" stroke="#e8eaed" stroke-opacity="1" stroke-miterlimit="10" d="M 2284.59808 405.798978 L 2286.098491 403.298293 L 2288.501492 400.801516 L 2290.99827 399.101832 L 2293.401271 397.999967 " transform="matrix(0.999726, 0, 0, -0.999726, 0, 2389.082419)"/><path fill="none" stroke-width="0.70866" stroke-linecap="round" stroke-linejoin="round" stroke="#e8eaed" stroke-opacity="1" stroke-miterlimit="10" d="M 2280.401619 423.100589 L 2280.401619 419.599631 L 2280.800165 416.098672 L 2281.601166 412.601621 L 2282.898396 409.100663 L 2284.500397 405.798978 " transform="matrix(0.999726, 0, 0, -0.999726, 0, 2389.082419)"/><path fill="none" stroke-width="0.70866" stroke-linecap="round" stroke-linejoin="round" stroke="#e8eaed" stroke-opacity="1" stroke-miterlimit="10" d="M 2282.999986 432.599283 L 2281.800439 429.598462 L 2280.901756 426.601547 L 2280.499302 423.600726 L 2280.499302 423.100589 " transform="matrix(0.999726, 0, 0, -0.999726, 0, 2389.082419)"/><path fill="none" stroke-width="0.70866" stroke-linecap="round" stroke-linejoin="round" stroke="#e8eaed" stroke-opacity="1" stroke-miterlimit="10" d="M 2300.801735 435.701695 L 2298.801187 437.299789 L 2296.800639 438.401653 L 2294.800092 438.90179 L 2292.799544 439.101063 L 2290.798996 438.90179 L 2288.798449 438.300062 L 2286.801808 437.198198 L 2284.801261 435.400831 L 2283.398533 433.400284 L 2282.999986 432.5016 " transform="matrix(0.999726, 0, 0, -0.999726, 0, 2389.082419)"/><path fill="none" stroke-width="0.70866" stroke-linecap="round" stroke-linejoin="round" stroke="#e8eaed" stroke-opacity="1" stroke-miterlimit="10" d="M 2270.899017 528.098083 L 2269.300924 531.098904 L 2267.198786 534.099726 L 2265.198238 536.201864 " transform="matrix(0.999726, 0, 0, -0.999726, 0, 2389.082419)"/><path fill="none" stroke-width="0.70866" stroke-linecap="round" stroke-linejoin="round" stroke="#e8eaed" stroke-opacity="1" stroke-miterlimit="10" d="M 2272.899565 510.499515 L 2273.399702 513.898883 L 2273.399702 517.298251 L 2273.001155 520.701527 L 2272.301745 524.100895 L 2271.098291 527.500263 L 2270.899017 528.098083 " transform="matrix(0.999726, 0, 0, -0.999726, 0, 2389.082419)"/><path fill="none" stroke-width="0.70866" stroke-linecap="round" stroke-linejoin="round" stroke="#e8eaed" stroke-opacity="1" stroke-miterlimit="10" d="M 2267.300376 500.19982 L 2269.69947 502.700505 L 2271.199881 505.20119 L 2272.301745 507.701874 L 2272.801882 510.198651 L 2272.899565 510.601105 " transform="matrix(0.999726, 0, 0, -0.999726, 0, 2389.082419)"/><path fill="none" stroke-width="0.70866" stroke-linecap="round" stroke-linejoin="round" stroke="#e8eaed" stroke-opacity="1" stroke-miterlimit="10" d="M 2257.801682 498.500136 L 2259.700639 497.999999 L 2261.599597 497.898409 L 2263.498554 498.199273 L 2265.401419 498.898683 L 2267.300376 500.09823 " transform="matrix(0.999726, 0, 0, -0.999726, 0, 2389.082419)"/><path fill="none" stroke-width="0.70866" stroke-linecap="round" stroke-linejoin="round" stroke="#e8eaed" stroke-opacity="1" stroke-miterlimit="10" d="M 2249.100081 506.299146 L 2250.600492 503.798462 L 2252.999586 501.301685 L 2255.500271 499.598093 L 2257.899365 498.500136 " transform="matrix(0.999726, 0, 0, -0.999726, 0, 2389.082419)"/><path fill="none" stroke-width="0.70866" stroke-linecap="round" stroke-linejoin="round" stroke="#e8eaed" stroke-opacity="1" stroke-miterlimit="10" d="M 2244.899712 523.600758 L 2244.899712 520.099799 L 2245.298259 516.598841 L 2246.09926 513.10179 L 2247.400397 509.600831 L 2248.998491 506.299146 " transform="matrix(0.999726, 0, 0, -0.999726, 0, 2389.082419)"/><path fill="none" stroke-width="0.70866" stroke-linecap="round" stroke-linejoin="round" stroke="#e8eaed" stroke-opacity="1" stroke-miterlimit="10" d="M 2247.400397 533.099452 L 2246.20085 530.09863 L 2245.298259 527.101716 L 2244.899712 524.100895 L 2244.899712 523.600758 " transform="matrix(0.999726, 0, 0, -0.999726, 0, 2389.082419)"/><path fill="none" stroke-width="0.70866" stroke-linecap="round" stroke-linejoin="round" stroke="#e8eaed" stroke-opacity="1" stroke-miterlimit="10" d="M 2265.299828 536.201864 L 2263.299281 537.799957 L 2261.298733 538.901822 L 2259.298185 539.398051 L 2257.301545 539.601232 L 2255.300997 539.398051 L 2253.30045 538.800231 L 2251.299902 537.698367 L 2249.299354 535.901 L 2247.900534 533.900452 L 2247.49808 533.001769 " transform="matrix(0.999726, 0, 0, -0.999726, 0, 2389.082419)"/><path fill="none" stroke-width="0.70866" stroke-linecap="round" stroke-linejoin="round" stroke="#e8eaed" stroke-opacity="1" stroke-miterlimit="10" d="M 2271.899291 421.600178 L 2270.301198 424.601 L 2268.19906 427.601821 L 2266.198512 429.700052 " transform="matrix(0.999726, 0, 0, -0.999726, 0, 2389.082419)"/><path fill="none" stroke-width="0.70866" stroke-linecap="round" stroke-linejoin="round" stroke="#e8eaed" stroke-opacity="1" stroke-miterlimit="10" d="M 2273.899839 404.00161 L 2274.399976 407.400979 L 2274.399976 410.800347 L 2274.001429 414.199715 L 2273.298112 417.599083 L 2272.098565 420.998451 L 2271.899291 421.600178 " transform="matrix(0.999726, 0, 0, -0.999726, 0, 2389.082419)"/><path fill="none" stroke-width="0.70866" stroke-linecap="round" stroke-linejoin="round" stroke="#e8eaed" stroke-opacity="1" stroke-miterlimit="10" d="M 2268.30065 393.600326 L 2270.699744 396.10101 L 2272.200155 398.601695 L 2273.298112 401.098472 L 2273.798249 403.599157 L 2273.899839 404.00161 " transform="matrix(0.999726, 0, 0, -0.999726, 0, 2389.082419)"/><path fill="none" stroke-width="0.70866" stroke-linecap="round" stroke-linejoin="round" stroke="#e8eaed" stroke-opacity="1" stroke-miterlimit="10" d="M 2258.798048 391.900642 L 2260.700913 391.400505 L 2262.59987 391.298914 L 2264.498828 391.599778 L 2266.401692 392.299188 L 2268.30065 393.498735 " transform="matrix(0.999726, 0, 0, -0.999726, 0, 2389.082419)"/><path fill="none" stroke-width="0.70866" stroke-linecap="round" stroke-linejoin="round" stroke="#e8eaed" stroke-opacity="1" stroke-miterlimit="10" d="M 2250.100355 399.699652 L 2251.600766 397.198967 L 2253.99986 394.698282 L 2256.500544 392.998598 L 2258.899639 391.900642 " transform="matrix(0.999726, 0, 0, -0.999726, 0, 2389.082419)"/><path fill="none" stroke-width="0.70866" stroke-linecap="round" stroke-linejoin="round" stroke="#e8eaed" stroke-opacity="1" stroke-miterlimit="10" d="M 2245.899986 417.001263 L 2245.899986 413.500305 L 2246.298533 409.999346 L 2247.099533 406.498388 L 2248.400671 403.001337 L 2249.998765 399.699652 " transform="matrix(0.999726, 0, 0, -0.999726, 0, 2389.082419)"/><path fill="none" stroke-width="0.70866" stroke-linecap="round" stroke-linejoin="round" stroke="#e8eaed" stroke-opacity="1" stroke-miterlimit="10" d="M 2248.400671 426.499957 L 2247.201124 423.499136 L 2246.298533 420.498314 L 2245.899986 417.5014 L 2245.899986 417.001263 " transform="matrix(0.999726, 0, 0, -0.999726, 0, 2389.082419)"/><path fill="none" stroke-width="0.70866" stroke-linecap="round" stroke-linejoin="round" stroke="#e8eaed" stroke-opacity="1" stroke-miterlimit="10" d="M 2266.300102 429.700052 L 2264.299555 431.298146 L 2262.299007 432.40001 L 2260.298459 432.900147 L 2258.301819 433.09942 L 2256.301271 432.900147 L 2254.300724 432.298419 L 2252.300176 431.200463 L 2250.299628 429.399188 L 2248.900808 427.398641 L 2248.498354 426.499957 " transform="matrix(0.999726, 0, 0, -0.999726, 0, 2389.082419)"/><path fill="none" stroke-width="0.70866" stroke-linecap="round" stroke-linejoin="round" stroke="#e8eaed" stroke-opacity="1" stroke-miterlimit="10" d="M 2237.401566 415.500852 L 2235.799565 418.501674 L 2233.701334 421.498588 L 2231.700787 423.600726 " transform="matrix(0.999726, 0, 0, -0.999726, 0, 2389.082419)"/><path fill="none" stroke-width="0.70866" stroke-linecap="round" stroke-linejoin="round" stroke="#e8eaed" stroke-opacity="1" stroke-miterlimit="10" d="M 2239.398206 397.898377 L 2239.898343 401.301653 L 2239.898343 404.701021 L 2239.499797 408.100389 L 2238.800386 411.499757 L 2237.600839 414.899125 L 2237.401566 415.500852 " transform="matrix(0.999726, 0, 0, -0.999726, 0, 2389.082419)"/><path fill="none" stroke-width="0.70866" stroke-linecap="round" stroke-linejoin="round" stroke="#e8eaed" stroke-opacity="1" stroke-miterlimit="10" d="M 2233.799017 387.501 L 2236.198112 390.001684 L 2237.698522 392.498461 L 2238.800386 394.999146 L 2239.300523 397.499831 L 2239.398206 397.898377 " transform="matrix(0.999726, 0, 0, -0.999726, 0, 2389.082419)"/><path fill="none" stroke-width="0.70866" stroke-linecap="round" stroke-linejoin="round" stroke="#e8eaed" stroke-opacity="1" stroke-miterlimit="10" d="M 2224.300323 385.898999 L 2226.199281 385.398862 L 2228.098238 385.301179 L 2230.001103 385.598135 L 2231.90006 386.301452 L 2233.799017 387.501 " transform="matrix(0.999726, 0, 0, -0.999726, 0, 2389.082419)"/><path fill="none" stroke-width="0.70866" stroke-linecap="round" stroke-linejoin="round" stroke="#e8eaed" stroke-opacity="1" stroke-miterlimit="10" d="M 2215.501039 393.701916 L 2217.00145 391.201231 L 2219.400544 388.700547 L 2221.901229 387.000863 L 2224.300323 385.898999 " transform="matrix(0.999726, 0, 0, -0.999726, 0, 2389.082419)"/><path fill="none" stroke-width="0.70866" stroke-linecap="round" stroke-linejoin="round" stroke="#e8eaed" stroke-opacity="1" stroke-miterlimit="10" d="M 2211.398354 410.901937 L 2211.398354 407.400979 L 2211.800808 403.90002 L 2212.601808 400.399062 L 2213.899038 396.898103 L 2215.501039 393.600326 " transform="matrix(0.999726, 0, 0, -0.999726, 0, 2389.082419)"/><path fill="none" stroke-width="0.70866" stroke-linecap="round" stroke-linejoin="round" stroke="#e8eaed" stroke-opacity="1" stroke-miterlimit="10" d="M 2213.899038 420.400631 L 2212.699491 417.39981 L 2211.800808 414.398988 L 2211.398354 411.398167 L 2211.398354 410.901937 " transform="matrix(0.999726, 0, 0, -0.999726, 0, 2389.082419)"/><path fill="none" stroke-width="0.70866" stroke-linecap="round" stroke-linejoin="round" stroke="#e8eaed" stroke-opacity="1" stroke-miterlimit="10" d="M 2231.700787 423.600726 L 2229.700239 425.19882 L 2227.699691 426.300684 L 2225.699144 426.800821 L 2223.698596 427.000094 L 2221.698048 426.800821 L 2219.701408 426.199093 L 2217.70086 425.101137 L 2215.700313 423.299862 L 2214.301492 421.299315 L 2213.899038 420.400631 " transform="matrix(0.999726, 0, 0, -0.999726, 0, 2389.082419)"/><path fill="none" stroke-width="0.70866" stroke-linecap="round" stroke-linejoin="round" stroke="#e8eaed" stroke-opacity="1" stroke-miterlimit="10" d="M 2202.899933 409.401526 L 2201.30184 412.39844 L 2199.199702 415.399262 L 2197.199154 417.5014 " transform="matrix(0.999726, 0, 0, -0.999726, 0, 2389.082419)"/><path fill="none" stroke-width="0.70866" stroke-linecap="round" stroke-linejoin="round" stroke="#e8eaed" stroke-opacity="1" stroke-miterlimit="10" d="M 2204.900481 391.799051 L 2205.400618 395.198419 L 2205.400618 398.601695 L 2204.998164 402.001063 L 2204.298754 405.400431 L 2203.099207 408.799799 L 2202.899933 409.401526 " transform="matrix(0.999726, 0, 0, -0.999726, 0, 2389.082419)"/><path fill="none" stroke-width="0.70866" stroke-linecap="round" stroke-linejoin="round" stroke="#e8eaed" stroke-opacity="1" stroke-miterlimit="10" d="M 2199.301292 381.401674 L 2201.700386 383.898451 L 2203.200797 386.399135 L 2204.298754 388.89982 L 2204.798891 391.400505 L 2204.900481 391.799051 " transform="matrix(0.999726, 0, 0, -0.999726, 0, 2389.082419)"/><path fill="none" stroke-width="0.70866" stroke-linecap="round" stroke-linejoin="round" stroke="#e8eaed" stroke-opacity="1" stroke-miterlimit="10" d="M 2189.798691 379.799673 L 2191.701555 379.299536 L 2193.600513 379.201853 L 2195.49947 379.498809 L 2197.398427 380.198219 L 2199.301292 381.401674 " transform="matrix(0.999726, 0, 0, -0.999726, 0, 2389.082419)"/><path fill="none" stroke-width="0.70866" stroke-linecap="round" stroke-linejoin="round" stroke="#e8eaed" stroke-opacity="1" stroke-miterlimit="10" d="M 2180.999407 387.598683 L 2182.499818 385.101905 L 2184.898912 382.601221 L 2187.399596 380.901537 L 2189.798691 379.799673 " transform="matrix(0.999726, 0, 0, -0.999726, 0, 2389.082419)"/><path fill="none" stroke-width="0.70866" stroke-linecap="round" stroke-linejoin="round" stroke="#e8eaed" stroke-opacity="1" stroke-miterlimit="10" d="M 2176.900628 404.900294 L 2176.900628 401.399336 L 2177.299175 397.898377 L 2178.100176 394.401326 L 2179.401313 390.900368 L 2180.999407 387.598683 " transform="matrix(0.999726, 0, 0, -0.999726, 0, 2389.082419)"/><path fill="none" stroke-width="0.70866" stroke-linecap="round" stroke-linejoin="round" stroke="#e8eaed" stroke-opacity="1" stroke-miterlimit="10" d="M 2179.401313 414.398988 L 2178.201766 411.398167 L 2177.299175 408.401252 L 2176.900628 405.400431 L 2176.900628 404.900294 " transform="matrix(0.999726, 0, 0, -0.999726, 0, 2389.082419)"/><path fill="none" stroke-width="0.70866" stroke-linecap="round" stroke-linejoin="round" stroke="#e8eaed" stroke-opacity="1" stroke-miterlimit="10" d="M 2197.199154 417.5014 L 2195.198606 419.099494 L 2193.198059 420.201358 L 2191.201418 420.701495 L 2189.200871 420.900768 L 2187.200323 420.701495 L 2185.199775 420.099767 L 2183.199228 419.001811 L 2181.19868 417.200536 L 2179.79986 415.199989 L 2179.401313 414.301305 " transform="matrix(0.999726, 0, 0, -0.999726, 0, 2389.082419)"/><path fill="none" stroke-width="0.70866" stroke-linecap="round" stroke-linejoin="round" stroke="#e8eaed" stroke-opacity="1" stroke-miterlimit="10" d="M 2168.398301 403.298293 L 2166.800207 406.299114 L 2164.698069 409.299936 L 2162.701429 411.398167 " transform="matrix(0.999726, 0, 0, -0.999726, 0, 2389.082419)"/><path fill="none" stroke-width="0.70866" stroke-linecap="round" stroke-linejoin="round" stroke="#e8eaed" stroke-opacity="1" stroke-miterlimit="10" d="M 2170.301166 385.699725 L 2170.801302 389.099093 L 2170.801302 392.498461 L 2170.398849 395.901737 L 2169.699438 399.301105 L 2168.499891 402.700473 L 2168.300618 403.298293 " transform="matrix(0.999726, 0, 0, -0.999726, 0, 2389.082419)"/><path fill="none" stroke-width="0.70866" stroke-linecap="round" stroke-linejoin="round" stroke="#e8eaed" stroke-opacity="1" stroke-miterlimit="10" d="M 2164.79966 375.29844 L 2167.198754 377.799125 L 2168.699165 380.299809 L 2169.801029 382.800494 L 2170.301166 385.301179 L 2170.398849 385.699725 " transform="matrix(0.999726, 0, 0, -0.999726, 0, 2389.082419)"/><path fill="none" stroke-width="0.70866" stroke-linecap="round" stroke-linejoin="round" stroke="#e8eaed" stroke-opacity="1" stroke-miterlimit="10" d="M 2155.300965 373.700347 L 2157.199923 373.20021 L 2159.09888 373.098619 L 2161.001745 373.399483 L 2162.900702 374.098893 L 2164.79966 375.29844 " transform="matrix(0.999726, 0, 0, -0.999726, 0, 2389.082419)"/><path fill="none" stroke-width="0.70866" stroke-linecap="round" stroke-linejoin="round" stroke="#e8eaed" stroke-opacity="1" stroke-miterlimit="10" d="M 2146.501682 381.499357 L 2147.998185 378.998672 L 2150.401187 376.501895 L 2152.901871 374.798303 L 2155.300965 373.700347 " transform="matrix(0.999726, 0, 0, -0.999726, 0, 2389.082419)"/><path fill="none" stroke-width="0.70866" stroke-linecap="round" stroke-linejoin="round" stroke="#e8eaed" stroke-opacity="1" stroke-miterlimit="10" d="M 2142.301313 398.800968 L 2142.301313 395.30001 L 2142.69986 391.799051 L 2143.50086 388.298093 L 2144.79809 384.801042 L 2146.400091 381.499357 " transform="matrix(0.999726, 0, 0, -0.999726, 0, 2389.082419)"/><path fill="none" stroke-width="0.70866" stroke-linecap="round" stroke-linejoin="round" stroke="#e8eaed" stroke-opacity="1" stroke-miterlimit="10" d="M 2144.899681 408.299662 L 2143.700133 405.298841 L 2142.80145 402.301926 L 2142.398996 399.301105 L 2142.398996 398.800968 " transform="matrix(0.999726, 0, 0, -0.999726, 0, 2389.082419)"/><path fill="none" stroke-width="0.70866" stroke-linecap="round" stroke-linejoin="round" stroke="#e8eaed" stroke-opacity="1" stroke-miterlimit="10" d="M 2162.701429 411.398167 L 2160.700881 413.000168 L 2158.700334 414.098124 L 2156.699786 414.598261 L 2154.699238 414.801442 L 2152.698691 414.598261 L 2150.698143 414.000441 L 2148.701503 412.898577 L 2146.700955 411.10121 L 2145.298227 409.100663 L 2144.899681 408.198072 " transform="matrix(0.999726, 0, 0, -0.999726, 0, 2389.082419)"/><path fill="none" stroke-width="0.70866" stroke-linecap="round" stroke-linejoin="round" stroke="#e8eaed" stroke-opacity="1" stroke-miterlimit="10" d="M 2213.500492 527.101716 L 2211.499944 528.69981 L 2209.499396 529.801674 L 2207.498849 530.301811 L 2205.498301 530.501084 L 2203.501661 530.301811 L 2201.501113 529.700084 L 2199.500565 528.59822 L 2197.500018 526.800853 L 2196.101197 524.800305 L 2195.698743 523.901621 " transform="matrix(0.999726, 0, 0, -0.999726, 0, 2389.082419)"/><path fill="none" stroke-width="0.70866" stroke-linecap="round" stroke-linejoin="round" stroke="#e8eaed" stroke-opacity="1" stroke-miterlimit="10" d="M 2195.698743 523.999304 L 2194.499196 520.998483 L 2193.600513 518.001569 L 2193.198059 515.000747 L 2193.198059 514.50061 " transform="matrix(0.999726, 0, 0, -0.999726, 0, 2389.082419)"/><path fill="none" stroke-width="0.70866" stroke-linecap="round" stroke-linejoin="round" stroke="#e8eaed" stroke-opacity="1" stroke-miterlimit="10" d="M 2193.100376 514.50061 L 2193.100376 510.999652 L 2193.498922 507.498693 L 2194.299923 504.001642 L 2195.60106 500.500684 L 2197.199154 497.198999 " transform="matrix(0.999726, 0, 0, -0.999726, 0, 2389.082419)"/><path fill="none" stroke-width="0.70866" stroke-linecap="round" stroke-linejoin="round" stroke="#e8eaed" stroke-opacity="1" stroke-miterlimit="10" d="M 2197.300744 497.198999 L 2198.801155 494.698314 L 2201.200249 492.201537 L 2203.700934 490.501853 L 2206.100028 489.399989 " transform="matrix(0.999726, 0, 0, -0.999726, 0, 2389.082419)"/><path fill="none" stroke-width="0.70866" stroke-linecap="round" stroke-linejoin="round" stroke="#e8eaed" stroke-opacity="1" stroke-miterlimit="10" d="M 2205.998438 489.399989 L 2207.901303 488.899852 L 2209.80026 488.798262 L 2211.699217 489.099125 L 2213.598175 489.798535 L 2215.501039 490.998083 " transform="matrix(0.999726, 0, 0, -0.999726, 0, 2389.082419)"/><path fill="none" stroke-width="0.70866" stroke-linecap="round" stroke-linejoin="round" stroke="#e8eaed" stroke-opacity="1" stroke-miterlimit="10" d="M 2215.598722 490.998083 L 2218.001724 493.498767 L 2219.498227 495.999452 L 2220.600091 498.500136 L 2221.100228 501.000821 L 2221.201819 501.399368 " transform="matrix(0.999726, 0, 0, -0.999726, 0, 2389.082419)"/><path fill="none" stroke-width="0.70866" stroke-linecap="round" stroke-linejoin="round" stroke="#e8eaed" stroke-opacity="1" stroke-miterlimit="10" d="M 2221.100228 501.399368 L 2221.600365 504.798736 L 2221.600365 508.198104 L 2221.201819 511.601379 L 2220.498501 515.000747 L 2219.298954 518.400115 L 2219.099681 519.001843 " transform="matrix(0.999726, 0, 0, -0.999726, 0, 2389.082419)"/><path fill="none" stroke-width="0.70866" stroke-linecap="round" stroke-linejoin="round" stroke="#e8eaed" stroke-opacity="1" stroke-miterlimit="10" d="M 2219.099681 519.001843 L 2217.501587 521.998757 L 2215.399449 524.999578 L 2213.398901 527.101716 " transform="matrix(0.999726, 0, 0, -0.999726, 0, 2389.082419)"/><path fill="none" stroke-width="0.70866" stroke-linecap="round" stroke-linejoin="round" stroke="#e8eaed" stroke-opacity="1" stroke-miterlimit="10" d="M 2316.798301 350.799546 L 2317.298438 351.498956 L 2318.099439 351.999093 L 2318.998122 352.198366 L 2320.498533 352.198366 L 2321.498807 351.999093 L 2322.198217 351.498956 L 2322.698354 350.799546 L 2322.698354 349.799272 L 2322.198217 348.798998 L 2316.798301 342.500399 L 2322.698354 342.500399 " transform="matrix(0.999726, 0, 0, -0.999726, 0, 2389.082419)"/><path fill="none" stroke-width="0.70866" stroke-linecap="round" stroke-linejoin="round" stroke="#e8eaed" stroke-opacity="1" stroke-miterlimit="10" d="M 2333.400503 345.899767 L 2338.300281 345.899767 " transform="matrix(0.999726, 0, 0, -0.999726, 0, 2389.082419)"/><path fill="none" stroke-width="0.70866" stroke-linecap="round" stroke-linejoin="round" stroke="#e8eaed" stroke-opacity="1" stroke-miterlimit="10" d="M 2348.998523 352.198366 L 2352.601071 352.198366 L 2353.800619 351.999093 L 2354.601619 351.498956 L 2354.800892 350.799546 L 2354.800892 349.998546 L 2354.601619 349.299135 L 2354.101482 348.798998 L 2353.601345 348.599725 L 2352.901935 348.298861 L 2353.800619 348.099588 L 2354.300755 347.599451 L 2354.601619 347.099314 L 2354.800892 346.200631 L 2354.800892 344.899493 L 2354.601619 344.00081 L 2354.101482 343.199809 L 2353.300482 342.699672 L 2352.601071 342.500399 L 2348.998523 342.500399 " transform="matrix(0.999726, 0, 0, -0.999726, 0, 2389.082419)"/><path fill="none" stroke-width="0.70866" stroke-linecap="round" stroke-linejoin="round" stroke="#e8eaed" stroke-opacity="1" stroke-miterlimit="10" d="M 2358.700397 342.500399 L 2358.700397 350.498682 L 2358.899671 351.498956 L 2359.399808 351.999093 L 2360.200808 352.198366 L 2360.599355 352.198366 " transform="matrix(0.999726, 0, 0, -0.999726, 0, 2389.082419)"/><path fill="none" stroke-width="0.70866" stroke-linecap="round" stroke-linejoin="round" stroke="#e8eaed" stroke-opacity="1" stroke-miterlimit="10" d="M 2371.301503 345.899767 L 2376.201282 345.899767 " transform="matrix(0.999726, 0, 0, -0.999726, 0, 2389.082419)"/><path fill="none" stroke-width="0.70866" stroke-linecap="round" stroke-linejoin="round" stroke="#e8eaed" stroke-opacity="1" stroke-miterlimit="10" d="M 2347.998249 336.2018 L 2348.498386 336.90121 L 2349.201703 337.401347 L 2350.19807 337.60062 L 2351.600798 337.60062 L 2352.601071 337.401347 L 2353.300482 336.90121 L 2353.800619 336.2018 L 2353.800619 335.201526 L 2353.300482 334.201252 L 2347.998249 327.898746 L 2353.800619 327.898746 " transform="matrix(0.999726, 0, 0, -0.999726, 0, 2389.082419)"/><path fill="none" stroke-width="0.70866" stroke-linecap="round" stroke-linejoin="round" stroke="#e8eaed" stroke-opacity="1" stroke-miterlimit="10" d="M 2357.700124 327.898746 L 2357.700124 335.900936 L 2358.000987 336.90121 L 2358.399534 337.401347 L 2359.200534 337.60062 L 2359.700671 337.60062 " transform="matrix(0.999726, 0, 0, -0.999726, 0, 2389.082419)"/><path fill="none" stroke-width="0.70866" stroke-linecap="round" stroke-linejoin="round" stroke="#e8eaed" stroke-opacity="1" stroke-miterlimit="10" d="M 2370.398912 331.298114 L 2375.201008 331.298114 " transform="matrix(0.999726, 0, 0, -0.999726, 0, 2389.082419)"/><path fill="none" stroke-width="1.41732" stroke-linecap="round" stroke-linejoin="round" stroke="#e8eaed" stroke-opacity="1" stroke-miterlimit="10" d="M 2139.601355 640.699221 L 2138.198627 641.699494 L 2136.698217 642.199631 L 2134.299122 642.699768 L 2132.298575 642.699768 L 2130.399617 642.199631 L 2128.899207 641.699494 L 2127.500386 640.699221 L 2127.000249 639.3004 L 2127.000249 638.300126 L 2127.500386 636.799715 L 2128.899207 635.799442 L 2137.198353 632.400074 L 2138.698764 631.50139 L 2139.601355 630.000979 L 2140.101492 628.500569 L 2140.101492 627.601885 L 2139.601355 626.101474 L 2138.698764 624.698747 L 2137.198353 623.698473 L 2134.799259 623.198336 L 2131.798438 623.198336 L 2129.399343 623.698473 L 2127.500386 624.698747 L 2126.500112 625.601337 " transform="matrix(0.999726, 0, 0, -0.999726, 0, 2389.082419)"/><path fill="none" stroke-width="1.41732" stroke-linecap="round" stroke-linejoin="round" stroke="#e8eaed" stroke-opacity="1" stroke-miterlimit="10" d="M 2146.001545 623.198336 L 2153.300418 623.198336 L 2155.199375 623.698473 L 2156.199649 624.19861 L 2157.199923 625.1012 L 2157.598469 627.101748 L 2157.598469 632.90021 L 2157.199923 634.900758 L 2156.199649 635.799442 L 2155.199375 636.299579 L 2153.300418 636.799715 L 2146.001545 636.799715 L 2146.001545 617.399873 " transform="matrix(0.999726, 0, 0, -0.999726, 0, 2389.082419)"/><path fill="none" stroke-width="1.41732" stroke-linecap="round" stroke-linejoin="round" stroke="#e8eaed" stroke-opacity="1" stroke-miterlimit="10" d="M 2175.200944 623.198336 L 2167.898164 623.198336 L 2165.901524 623.698473 L 2164.90125 624.19861 L 2163.998659 625.1012 L 2163.498522 627.101748 L 2163.498522 632.90021 L 2163.998659 634.900758 L 2164.90125 635.799442 L 2165.901524 636.299579 L 2167.898164 636.799715 L 2170.801302 636.799715 L 2172.70026 636.299579 L 2173.700534 635.799442 L 2174.700808 634.900758 L 2175.200944 632.90021 L 2175.200944 630.000979 L 2163.498522 630.000979 " transform="matrix(0.999726, 0, 0, -0.999726, 0, 2389.082419)"/><path fill="none" stroke-width="1.41732" stroke-linecap="round" stroke-linejoin="round" stroke="#e8eaed" stroke-opacity="1" stroke-miterlimit="10" d="M 2192.701829 636.799715 L 2185.399049 636.799715 L 2183.398501 636.299579 L 2182.499818 635.799442 L 2181.499544 634.900758 L 2180.999407 632.90021 L 2180.999407 627.101748 L 2181.499544 625.1012 L 2182.499818 624.19861 L 2183.398501 623.698473 L 2185.399049 623.198336 L 2192.701829 623.198336 " transform="matrix(0.999726, 0, 0, -0.999726, 0, 2389.082419)"/><path fill="none" stroke-width="1.41732" stroke-linecap="round" stroke-linejoin="round" stroke="#e8eaed" stroke-opacity="1" stroke-miterlimit="10" d="M 2198.500292 636.799715 L 2198.500292 623.198336 " transform="matrix(0.999726, 0, 0, -0.999726, 0, 2389.082419)"/><path fill="none" stroke-width="1.41732" stroke-linecap="round" stroke-linejoin="round" stroke="#e8eaed" stroke-opacity="1" stroke-miterlimit="10" d="M 2216.098859 626.601611 L 2215.098585 624.698747 L 2213.598175 623.698473 L 2211.699217 623.198336 L 2208.799986 623.198336 L 2206.799438 623.698473 L 2205.299028 624.698747 L 2204.400344 626.601611 L 2204.400344 633.400347 L 2205.299028 635.400895 L 2206.799438 636.299579 L 2208.799986 636.799715 L 2216.098859 636.799715 L 2216.098859 623.698473 L 2216.501313 623.198336 L 2217.00145 623.198336 " transform="matrix(0.999726, 0, 0, -0.999726, 0, 2389.082419)"/><path fill="none" stroke-width="1.41732" stroke-linecap="round" stroke-linejoin="round" stroke="#e8eaed" stroke-opacity="1" stroke-miterlimit="10" d="M 2222.901503 642.699768 L 2222.901503 626.101474 L 2223.40164 623.698473 L 2224.300323 623.198336 L 2224.80046 623.198336 " transform="matrix(0.999726, 0, 0, -0.999726, 0, 2389.082419)"/><path fill="none" stroke-width="1.41732" stroke-linecap="round" stroke-linejoin="round" stroke="#e8eaed" stroke-opacity="1" stroke-miterlimit="10" d="M 2246.20085 623.198336 L 2246.20085 636.799715 L 2251.100629 636.799715 L 2252.100903 636.299579 L 2252.601039 635.799442 " transform="matrix(0.999726, 0, 0, -0.999726, 0, 2389.082419)"/><path fill="none" stroke-width="1.41732" stroke-linecap="round" stroke-linejoin="round" stroke="#e8eaed" stroke-opacity="1" stroke-miterlimit="10" d="M 2270.101924 623.198336 L 2262.799144 623.198336 L 2260.798596 623.698473 L 2259.899913 624.19861 L 2258.899639 625.1012 L 2258.399502 627.101748 L 2258.399502 632.90021 L 2258.899639 634.900758 L 2259.899913 635.799442 L 2260.798596 636.299579 L 2262.799144 636.799715 L 2265.698375 636.799715 L 2267.60124 636.299579 L 2268.601513 635.799442 L 2269.601787 634.900758 L 2270.101924 632.90021 L 2270.101924 630.000979 L 2258.399502 630.000979 " transform="matrix(0.999726, 0, 0, -0.999726, 0, 2389.082419)"/><path fill="none" stroke-width="1.41732" stroke-linecap="round" stroke-linejoin="round" stroke="#e8eaed" stroke-opacity="1" stroke-miterlimit="10" d="M 2287.598902 623.198336 L 2280.300028 623.198336 L 2278.401071 623.698473 L 2277.400797 624.19861 L 2276.400523 625.1012 L 2275.900387 627.101748 L 2275.900387 632.90021 L 2276.400523 634.900758 L 2277.400797 635.799442 L 2278.401071 636.299579 L 2280.300028 636.799715 L 2283.19926 636.799715 L 2285.199807 636.299579 L 2286.098491 635.799442 L 2287.098765 634.900758 L 2287.598902 632.90021 L 2287.598902 630.000979 L 2275.900387 630.000979 " transform="matrix(0.999726, 0, 0, -0.999726, 0, 2389.082419)"/><path fill="none" stroke-width="1.41732" stroke-linecap="round" stroke-linejoin="round" stroke="#e8eaed" stroke-opacity="1" stroke-miterlimit="10" d="M 2293.401271 636.799715 L 2299.301324 623.198336 L 2305.099786 636.799715 " transform="matrix(0.999726, 0, 0, -0.999726, 0, 2389.082419)"/><path fill="none" stroke-width="1.41732" stroke-linecap="round" stroke-linejoin="round" stroke="#e8eaed" stroke-opacity="1" stroke-miterlimit="10" d="M 2310.999839 636.799715 L 2310.999839 623.198336 " transform="matrix(0.999726, 0, 0, -0.999726, 0, 2389.082419)"/><path fill="none" stroke-width="1.41732" stroke-linecap="round" stroke-linejoin="round" stroke="#e8eaed" stroke-opacity="1" stroke-miterlimit="10" d="M 2316.798301 623.198336 L 2316.798301 636.799715 L 2325.601493 636.799715 L 2327.000313 636.299579 L 2328.000587 635.400895 L 2328.500724 634.400621 L 2328.500724 623.198336 " transform="matrix(0.999726, 0, 0, -0.999726, 0, 2389.082419)"/><path fill="none" stroke-width="1.41732" stroke-linecap="round" stroke-linejoin="round" stroke="#e8eaed" stroke-opacity="1" stroke-miterlimit="10" d="M 2346.001608 623.198336 L 2338.698828 623.198336 L 2336.799871 623.698473 L 2335.799597 624.19861 L 2334.799323 625.1012 L 2334.299186 627.101748 L 2334.299186 632.90021 L 2334.799323 634.900758 L 2335.799597 635.799442 L 2336.799871 636.299579 L 2338.698828 636.799715 L 2346.001608 636.799715 L 2346.001608 621.201695 L 2345.501472 619.298831 L 2344.501198 617.79842 L 2343.09847 617.399873 L 2334.299186 617.399873 " transform="matrix(0.999726, 0, 0, -0.999726, 0, 2389.082419)"/><path fill="none" stroke-width="1.41732" stroke-linecap="round" stroke-linejoin="round" stroke="#e8eaed" stroke-opacity="1" stroke-miterlimit="10" d="M 2129.399343 591.998388 L 2134.299122 591.998388 " transform="matrix(0.999726, 0, 0, -0.999726, 0, 2389.082419)"/><path fill="none" stroke-width="1.41732" stroke-linecap="round" stroke-linejoin="round" stroke="#e8eaed" stroke-opacity="1" stroke-miterlimit="10" d="M 2126.500112 599.801306 L 2133.798985 599.801306 L 2136.19808 599.301169 L 2137.69849 598.398578 L 2138.198627 596.898167 L 2138.198627 595.499347 L 2137.69849 593.998936 L 2136.698217 592.998662 L 2135.70185 592.498525 L 2134.299122 591.998388 L 2136.19808 591.599842 L 2137.198353 590.599568 L 2137.69849 589.599294 L 2138.198627 587.700337 L 2138.198627 585.199652 L 2137.69849 583.300695 L 2136.698217 581.800284 L 2135.299396 580.80001 L 2133.798985 580.401464 L 2126.500112 580.401464 " transform="matrix(0.999726, 0, 0, -0.999726, 0, 2389.082419)"/><path fill="none" stroke-width="1.41732" stroke-linecap="round" stroke-linejoin="round" stroke="#e8eaed" stroke-opacity="1" stroke-miterlimit="10" d="M 2155.699512 593.998936 L 2144.000997 580.401464 " transform="matrix(0.999726, 0, 0, -0.999726, 0, 2389.082419)"/><path fill="none" stroke-width="1.41732" stroke-linecap="round" stroke-linejoin="round" stroke="#e8eaed" stroke-opacity="1" stroke-miterlimit="10" d="M 2144.000997 593.998936 L 2155.699512 580.401464 " transform="matrix(0.999726, 0, 0, -0.999726, 0, 2389.082419)"/><path fill="none" stroke-width="1.41732" stroke-linecap="round" stroke-linejoin="round" stroke="#e8eaed" stroke-opacity="1" stroke-miterlimit="10" d="M 2179.999133 599.801306 L 2178.100176 595.901801 L 2177.099902 591.998388 L 2177.099902 588.098883 L 2178.100176 584.300969 L 2179.999133 580.401464 " transform="matrix(0.999726, 0, 0, -0.999726, 0, 2389.082419)"/><path fill="none" stroke-width="1.41732" stroke-linecap="round" stroke-linejoin="round" stroke="#e8eaed" stroke-opacity="1" stroke-miterlimit="10" d="M 2185.899186 593.998936 L 2188.798417 580.401464 L 2192.701829 590.099431 L 2196.601334 580.401464 L 2199.500565 593.998936 " transform="matrix(0.999726, 0, 0, -0.999726, 0, 2389.082419)"/><path fill="none" stroke-width="1.41732" stroke-linecap="round" stroke-linejoin="round" stroke="#e8eaed" stroke-opacity="1" stroke-miterlimit="10" d="M 2205.299028 593.998936 L 2205.299028 580.401464 " transform="matrix(0.999726, 0, 0, -0.999726, 0, 2389.082419)"/><path fill="none" stroke-width="1.41732" stroke-linecap="round" stroke-linejoin="round" stroke="#e8eaed" stroke-opacity="1" stroke-miterlimit="10" d="M 2213.101945 599.801306 L 2213.101945 580.401464 " transform="matrix(0.999726, 0, 0, -0.999726, 0, 2389.082419)"/><path fill="none" stroke-width="1.41732" stroke-linecap="round" stroke-linejoin="round" stroke="#e8eaed" stroke-opacity="1" stroke-miterlimit="10" d="M 2211.19908 593.998936 L 2216.098859 593.998936 " transform="matrix(0.999726, 0, 0, -0.999726, 0, 2389.082419)"/><path fill="none" stroke-width="1.41732" stroke-linecap="round" stroke-linejoin="round" stroke="#e8eaed" stroke-opacity="1" stroke-miterlimit="10" d="M 2233.599744 580.401464 L 2233.599744 590.099431 L 2233.099607 591.998388 L 2232.099333 592.998662 L 2231.099059 593.498799 L 2229.200102 593.998936 L 2221.901229 593.998936 " transform="matrix(0.999726, 0, 0, -0.999726, 0, 2389.082419)"/><path fill="none" stroke-width="1.41732" stroke-linecap="round" stroke-linejoin="round" stroke="#e8eaed" stroke-opacity="1" stroke-miterlimit="10" d="M 2221.901229 599.801306 L 2221.901229 580.401464 " transform="matrix(0.999726, 0, 0, -0.999726, 0, 2389.082419)"/><path fill="none" stroke-width="1.41732" stroke-linecap="round" stroke-linejoin="round" stroke="#e8eaed" stroke-opacity="1" stroke-miterlimit="10" d="M 2246.700987 593.998936 L 2243.801756 593.998936 L 2241.801208 593.498799 L 2240.898617 592.998662 L 2239.898343 591.998388 L 2239.398206 590.099431 L 2239.398206 584.300969 L 2239.898343 582.300421 L 2240.898617 581.300147 L 2241.801208 580.80001 L 2243.801756 580.401464 L 2246.700987 580.401464 L 2248.701534 580.80001 L 2249.600218 581.300147 L 2250.600492 582.300421 L 2251.100629 584.300969 L 2251.100629 590.099431 L 2250.600492 591.998388 L 2249.600218 592.998662 L 2248.701534 593.498799 L 2246.700987 593.998936 " transform="matrix(0.999726, 0, 0, -0.999726, 0, 2389.082419)"/><path fill="none" stroke-width="1.41732" stroke-linecap="round" stroke-linejoin="round" stroke="#e8eaed" stroke-opacity="1" stroke-miterlimit="10" d="M 2268.601513 593.998936 L 2268.601513 580.401464 L 2261.298733 580.401464 L 2259.399776 580.80001 L 2258.399502 581.300147 L 2257.399228 582.300421 L 2256.899091 584.300969 L 2256.899091 593.998936 " transform="matrix(0.999726, 0, 0, -0.999726, 0, 2389.082419)"/><path fill="none" stroke-width="1.41732" stroke-linecap="round" stroke-linejoin="round" stroke="#e8eaed" stroke-opacity="1" stroke-miterlimit="10" d="M 2276.400523 599.801306 L 2276.400523 580.401464 " transform="matrix(0.999726, 0, 0, -0.999726, 0, 2389.082419)"/><path fill="none" stroke-width="1.41732" stroke-linecap="round" stroke-linejoin="round" stroke="#e8eaed" stroke-opacity="1" stroke-miterlimit="10" d="M 2274.501566 593.998936 L 2279.299755 593.998936 " transform="matrix(0.999726, 0, 0, -0.999726, 0, 2389.082419)"/><path fill="none" stroke-width="1.41732" stroke-linecap="round" stroke-linejoin="round" stroke="#e8eaed" stroke-opacity="1" stroke-miterlimit="10" d="M 2312.398659 583.800832 L 2311.398386 581.800284 L 2309.999565 580.80001 L 2307.999018 580.401464 L 2305.099786 580.401464 L 2303.200829 580.80001 L 2301.700418 581.800284 L 2300.700144 583.800832 L 2300.700144 590.599568 L 2301.700418 592.498525 L 2303.200829 593.498799 L 2305.099786 593.998936 L 2312.398659 593.998936 L 2312.398659 580.80001 L 2312.898796 580.401464 L 2313.398933 580.401464 " transform="matrix(0.999726, 0, 0, -0.999726, 0, 2389.082419)"/><path fill="none" stroke-width="1.41732" stroke-linecap="round" stroke-linejoin="round" stroke="#e8eaed" stroke-opacity="1" stroke-miterlimit="10" d="M 2319.201303 580.401464 L 2319.201303 593.998936 L 2328.000587 593.998936 L 2329.500998 593.498799 L 2330.399681 592.498525 L 2330.899818 591.599842 L 2330.899818 580.401464 " transform="matrix(0.999726, 0, 0, -0.999726, 0, 2389.082419)"/><path fill="none" stroke-width="1.41732" stroke-linecap="round" stroke-linejoin="round" stroke="#e8eaed" stroke-opacity="1" stroke-miterlimit="10" d="M 2348.400703 580.401464 L 2341.10183 580.401464 L 2339.198965 580.80001 L 2338.198691 581.300147 L 2337.198417 582.300421 L 2336.799871 584.300969 L 2336.799871 590.099431 L 2337.198417 591.998388 L 2338.198691 592.998662 L 2339.198965 593.498799 L 2341.10183 593.998936 L 2348.400703 593.998936 L 2348.400703 578.400916 L 2347.998249 576.498051 L 2347.001882 575.001548 L 2345.501472 574.501411 L 2336.799871 574.501411 " transform="matrix(0.999726, 0, 0, -0.999726, 0, 2389.082419)"/><path fill="none" stroke-width="1.41732" stroke-linecap="round" stroke-linejoin="round" stroke="#e8eaed" stroke-opacity="1" stroke-miterlimit="10" d="M 2365.99927 593.998936 L 2365.99927 580.401464 L 2358.700397 580.401464 L 2356.69985 580.80001 L 2355.699576 581.300147 L 2354.800892 582.300421 L 2354.300755 584.300969 L 2354.300755 593.998936 " transform="matrix(0.999726, 0, 0, -0.999726, 0, 2389.082419)"/><path fill="none" stroke-width="1.41732" stroke-linecap="round" stroke-linejoin="round" stroke="#e8eaed" stroke-opacity="1" stroke-miterlimit="10" d="M 2371.80164 599.801306 L 2371.80164 583.300695 L 2372.301777 580.80001 L 2373.298144 580.401464 L 2373.798281 580.401464 " transform="matrix(0.999726, 0, 0, -0.999726, 0, 2389.082419)"/><path fill="none" stroke-width="1.41732" stroke-linecap="round" stroke-linejoin="round" stroke="#e8eaed" stroke-opacity="1" stroke-miterlimit="10" d="M 1965.401323 573.200273 L 1965.401323 586.899336 L 1970.199511 586.899336 L 1971.199785 586.399199 L 1971.699922 585.899062 " transform="matrix(0.999726, 0, 0, -0.999726, 0, 2389.082419)"/><path fill="none" stroke-width="1.41732" stroke-linecap="round" stroke-linejoin="round" stroke="#e8eaed" stroke-opacity="1" stroke-miterlimit="10" d="M 1993.100312 573.200273 L 2000.399185 573.200273 L 2002.298142 573.70041 L 2003.298416 574.200547 L 2004.29869 575.200821 L 2004.798827 577.099778 L 2004.798827 582.999831 L 2004.29869 584.898789 L 2003.298416 585.899062 L 2002.298142 586.399199 L 2000.399185 586.899336 L 1993.100312 586.899336 L 1993.100312 567.401811 " transform="matrix(0.999726, 0, 0, -0.999726, 0, 2389.082419)"/><path fill="none" stroke-width="1.41732" stroke-linecap="round" stroke-linejoin="round" stroke="#e8eaed" stroke-opacity="1" stroke-miterlimit="10" d="M 2022.299712 586.899336 L 2022.299712 573.200273 L 2015.000839 573.200273 L 2013.101881 573.70041 L 2012.101607 574.200547 L 2011.101334 575.200821 L 2010.601197 577.099778 L 2010.601197 586.899336 " transform="matrix(0.999726, 0, 0, -0.999726, 0, 2389.082419)"/><path fill="none" stroke-width="1.41732" stroke-linecap="round" stroke-linejoin="round" stroke="#e8eaed" stroke-opacity="1" stroke-miterlimit="10" d="M 2028.098174 592.701706 L 2028.098174 576.099505 L 2028.598311 573.70041 L 2029.598585 573.200273 L 2030.098722 573.200273 " transform="matrix(0.999726, 0, 0, -0.999726, 0, 2389.082419)"/><path fill="none" stroke-width="1.41732" stroke-linecap="round" stroke-linejoin="round" stroke="#e8eaed" stroke-opacity="1" stroke-miterlimit="10" d="M 2035.901091 592.701706 L 2035.901091 576.099505 L 2036.401228 573.70041 L 2037.401502 573.200273 L 2037.901639 573.200273 " transform="matrix(0.999726, 0, 0, -0.999726, 0, 2389.082419)"/><path fill="none" stroke-width="1.41732" stroke-linecap="round" stroke-linejoin="round" stroke="#e8eaed" stroke-opacity="1" stroke-miterlimit="10" d="M 2043.700101 592.701706 L 2045.700649 588.798294 L 2046.599333 584.898789 L 2046.599333 580.999284 L 2045.700649 577.099778 L 2043.700101 573.200273 " transform="matrix(0.999726, 0, 0, -0.999726, 0, 2389.082419)"/><path fill="none" stroke-width="0.70866" stroke-linecap="round" stroke-linejoin="round" stroke="#e8eaed" stroke-opacity="1" stroke-miterlimit="10" d="M 1974.099016 707.701938 L 1979.299659 707.701938 L 1980.698479 707.998894 L 1981.401797 708.401348 L 1982.101207 709.100758 L 1982.499754 710.401896 L 1982.499754 714.598357 L 1982.101207 716.001085 L 1981.401797 716.700495 L 1980.698479 717.001359 L 1979.299659 717.399905 L 1974.099016 717.399905 L 1974.099016 703.501569 " transform="matrix(0.999726, 0, 0, -0.999726, 0, 2389.082419)"/><path fill="none" stroke-width="0.70866" stroke-linecap="round" stroke-linejoin="round" stroke="#e8eaed" stroke-opacity="1" stroke-miterlimit="10" d="M 1994.999269 717.399905 L 1994.999269 707.701938 L 1989.798627 707.701938 L 1988.399806 707.998894 L 1987.700396 708.401348 L 1987.000986 709.100758 L 1986.598532 710.401896 L 1986.598532 717.399905 " transform="matrix(0.999726, 0, 0, -0.999726, 0, 2389.082419)"/><path fill="none" stroke-width="0.70866" stroke-linecap="round" stroke-linejoin="round" stroke="#e8eaed" stroke-opacity="1" stroke-miterlimit="10" d="M 1999.199638 721.600274 L 1999.199638 709.698578 L 1999.500502 707.998894 L 2000.199912 707.701938 L 2000.500775 707.701938 " transform="matrix(0.999726, 0, 0, -0.999726, 0, 2389.082419)"/><path fill="none" stroke-width="0.70866" stroke-linecap="round" stroke-linejoin="round" stroke="#e8eaed" stroke-opacity="1" stroke-miterlimit="10" d="M 2004.701144 721.600274 L 2004.701144 709.698578 L 2005.099691 707.998894 L 2005.799101 707.701938 L 2006.099964 707.701938 " transform="matrix(0.999726, 0, 0, -0.999726, 0, 2389.082419)"/><path fill="none" stroke-width="0.70866" stroke-linecap="round" stroke-linejoin="round" stroke="#e8eaed" stroke-opacity="1" stroke-miterlimit="10" d="M 2018.59948 707.701938 L 2013.398838 707.701938 L 2012.000017 707.998894 L 2011.300607 708.401348 L 2010.601197 709.100758 L 2010.300333 710.401896 L 2010.300333 714.598357 L 2010.601197 716.001085 L 2011.300607 716.700495 L 2012.000017 717.001359 L 2013.398838 717.399905 L 2015.500976 717.399905 L 2016.899796 717.001359 L 2017.599206 716.700495 L 2018.298616 716.001085 L 2018.59948 714.598357 L 2018.59948 712.500126 L 2010.300333 712.500126 " transform="matrix(0.999726, 0, 0, -0.999726, 0, 2389.082419)"/><path fill="none" stroke-width="0.70866" stroke-linecap="round" stroke-linejoin="round" stroke="#e8eaed" stroke-opacity="1" stroke-miterlimit="10" d="M 2027.000217 707.701938 L 2025.601397 704.90039 L 2024.898079 704.20098 L 2023.499259 703.501569 L 2022.799849 703.501569 " transform="matrix(0.999726, 0, 0, -0.999726, 0, 2389.082419)"/><path fill="none" stroke-width="0.70866" stroke-linecap="round" stroke-linejoin="round" stroke="#e8eaed" stroke-opacity="1" stroke-miterlimit="10" d="M 2022.799849 717.399905 L 2027.000217 707.701938 L 2031.098996 717.399905 " transform="matrix(0.999726, 0, 0, -0.999726, 0, 2389.082419)"/><path fill="none" stroke-width="0.70866" stroke-linecap="round" stroke-linejoin="round" stroke="#e8eaed" stroke-opacity="1" stroke-miterlimit="10" d="M 2054.800797 707.701938 L 2054.800797 714.598357 L 2054.398343 716.001085 L 2053.698932 716.700495 L 2052.999522 717.001359 L 2051.698385 717.399905 L 2046.400059 717.399905 " transform="matrix(0.999726, 0, 0, -0.999726, 0, 2389.082419)"/><path fill="none" stroke-width="0.70866" stroke-linecap="round" stroke-linejoin="round" stroke="#e8eaed" stroke-opacity="1" stroke-miterlimit="10" d="M 2046.400059 721.600274 L 2046.400059 707.701938 " transform="matrix(0.999726, 0, 0, -0.999726, 0, 2389.082419)"/><path fill="none" stroke-width="0.70866" stroke-linecap="round" stroke-linejoin="round" stroke="#e8eaed" stroke-opacity="1" stroke-miterlimit="10" d="M 2064.201808 717.399905 L 2062.09967 717.399905 L 2060.700849 717.001359 L 2060.001439 716.700495 L 2059.298122 716.001085 L 2059.001165 714.598357 L 2059.001165 710.401896 L 2059.298122 709.100758 L 2060.001439 708.401348 L 2060.700849 707.998894 L 2062.09967 707.701938 L 2064.201808 707.701938 L 2065.600628 707.998894 L 2066.300038 708.401348 L 2066.999449 709.100758 L 2067.300312 710.401896 L 2067.300312 714.598357 L 2066.999449 716.001085 L 2066.300038 716.700495 L 2065.600628 717.001359 L 2064.201808 717.399905 " transform="matrix(0.999726, 0, 0, -0.999726, 0, 2389.082419)"/><path fill="none" stroke-width="0.70866" stroke-linecap="round" stroke-linejoin="round" stroke="#e8eaed" stroke-opacity="1" stroke-miterlimit="10" d="M 2076.701323 717.399905 L 2074.599185 717.399905 L 2073.200365 717.001359 L 2072.500955 716.700495 L 2071.801544 716.001085 L 2071.500681 714.598357 L 2071.500681 710.401896 L 2071.801544 709.100758 L 2072.500955 708.401348 L 2073.200365 707.998894 L 2074.599185 707.701938 L 2076.701323 707.701938 L 2078.100144 707.998894 L 2078.799554 708.401348 L 2079.498964 709.100758 L 2079.799828 710.401896 L 2079.799828 714.598357 L 2079.498964 716.001085 L 2078.799554 716.700495 L 2078.100144 717.001359 L 2076.701323 717.399905 " transform="matrix(0.999726, 0, 0, -0.999726, 0, 2389.082419)"/><path fill="none" stroke-width="0.70866" stroke-linecap="round" stroke-linejoin="round" stroke="#e8eaed" stroke-opacity="1" stroke-miterlimit="10" d="M 2092.299343 707.701938 L 2086.399291 712.898673 " transform="matrix(0.999726, 0, 0, -0.999726, 0, 2389.082419)"/><path fill="none" stroke-width="0.70866" stroke-linecap="round" stroke-linejoin="round" stroke="#e8eaed" stroke-opacity="1" stroke-miterlimit="10" d="M 2084.000196 711.101306 L 2092.299343 717.399905 " transform="matrix(0.999726, 0, 0, -0.999726, 0, 2389.082419)"/><path fill="none" stroke-width="0.70866" stroke-linecap="round" stroke-linejoin="round" stroke="#e8eaed" stroke-opacity="1" stroke-miterlimit="10" d="M 2084.000196 721.600274 L 2084.000196 707.701938 " transform="matrix(0.999726, 0, 0, -0.999726, 0, 2389.082419)"/><path fill="none" stroke-width="0.70866" stroke-linecap="round" stroke-linejoin="round" stroke="#e8eaed" stroke-opacity="1" stroke-miterlimit="10" d="M 2107.600407 717.399905 L 2112.80105 717.399905 L 2114.19987 717.001359 L 2114.89928 716.700495 L 2115.59869 716.001085 L 2116.001144 714.598357 L 2116.001144 710.401896 L 2115.59869 709.100758 L 2114.89928 708.401348 L 2114.19987 707.998894 L 2112.80105 707.701938 L 2107.600407 707.701938 L 2107.600407 721.600274 " transform="matrix(0.999726, 0, 0, -0.999726, 0, 2389.082419)"/><path fill="none" stroke-width="0.70866" stroke-linecap="round" stroke-linejoin="round" stroke="#e8eaed" stroke-opacity="1" stroke-miterlimit="10" d="M 2120.099923 721.600274 L 2120.099923 709.698578 L 2120.498469 707.998894 L 2121.201787 707.701938 L 2121.498743 707.701938 " transform="matrix(0.999726, 0, 0, -0.999726, 0, 2389.082419)"/><path fill="none" stroke-width="0.70866" stroke-linecap="round" stroke-linejoin="round" stroke="#e8eaed" stroke-opacity="1" stroke-miterlimit="10" d="M 2130.899754 717.399905 L 2128.801524 717.399905 L 2127.398796 717.001359 L 2126.699386 716.700495 L 2126.101566 716.001085 L 2125.699112 714.598357 L 2125.699112 710.401896 L 2126.101566 709.100758 L 2126.699386 708.401348 L 2127.398796 707.998894 L 2128.801524 707.701938 L 2130.899754 707.701938 L 2132.298575 707.998894 L 2133.001892 708.401348 L 2133.701302 709.100758 L 2133.998259 710.401896 L 2133.998259 714.598357 L 2133.701302 716.001085 L 2133.001892 716.700495 L 2132.298575 717.001359 L 2130.899754 717.399905 " transform="matrix(0.999726, 0, 0, -0.999726, 0, 2389.082419)"/><path fill="none" stroke-width="0.70866" stroke-linecap="round" stroke-linejoin="round" stroke="#e8eaed" stroke-opacity="1" stroke-miterlimit="10" d="M 2146.599365 717.399905 L 2141.301039 717.399905 L 2139.999902 717.001359 L 2139.300491 716.700495 L 2138.601081 716.001085 L 2138.198627 714.598357 L 2138.198627 710.401896 L 2138.601081 709.100758 L 2139.300491 708.401348 L 2139.999902 707.998894 L 2141.301039 707.701938 L 2146.599365 707.701938 " transform="matrix(0.999726, 0, 0, -0.999726, 0, 2389.082419)"/><path fill="none" stroke-width="0.70866" stroke-linecap="round" stroke-linejoin="round" stroke="#e8eaed" stroke-opacity="1" stroke-miterlimit="10" d="M 2159.09888 707.701938 L 2153.198827 712.898673 " transform="matrix(0.999726, 0, 0, -0.999726, 0, 2389.082419)"/><path fill="none" stroke-width="0.70866" stroke-linecap="round" stroke-linejoin="round" stroke="#e8eaed" stroke-opacity="1" stroke-miterlimit="10" d="M 2150.698143 711.101306 L 2159.09888 717.399905 " transform="matrix(0.999726, 0, 0, -0.999726, 0, 2389.082419)"/><path fill="none" stroke-width="0.70866" stroke-linecap="round" stroke-linejoin="round" stroke="#e8eaed" stroke-opacity="1" stroke-miterlimit="10" d="M 2150.698143 721.600274 L 2150.698143 707.701938 " transform="matrix(0.999726, 0, 0, -0.999726, 0, 2389.082419)"/><path fill="none" stroke-width="0.70866" stroke-linecap="round" stroke-linejoin="round" stroke="#e8eaed" stroke-opacity="1" stroke-miterlimit="10" d="M 2253.499723 511.499789 L 2256.398954 514.39902 L 2256.398954 504.701053 " transform="matrix(0.999726, 0, 0, -0.999726, 0, 2389.082419)"/><path fill="none" stroke-width="0.70866" stroke-linecap="round" stroke-linejoin="round" stroke="#e8eaed" stroke-opacity="1" stroke-miterlimit="10" d="M 2249.100081 227.10162 L 2252.100903 230.000852 L 2252.100903 220.298977 " transform="matrix(0.999726, 0, 0, -0.999726, 0, 2389.082419)"/><path fill="none" stroke-width="0.70866" stroke-linecap="round" stroke-linejoin="round" stroke="#e8eaed" stroke-opacity="1" stroke-miterlimit="10" d="M 2294.299955 413.898851 L 2289.001629 413.898851 L 2289.001629 409.999346 L 2292.600271 409.999346 L 2293.901408 409.800073 L 2294.600818 409.100663 L 2294.800092 408.100389 L 2294.800092 406.599978 L 2294.600818 405.701295 L 2294.100682 404.900294 L 2293.401271 404.400157 L 2292.600271 404.200884 L 2289.001629 404.200884 " transform="matrix(0.999726, 0, 0, -0.999726, 0, 2389.082419)"/><path fill="none" stroke-width="0.70866" stroke-linecap="round" stroke-linejoin="round" stroke="#e8eaed" stroke-opacity="1" stroke-miterlimit="10" d="M 2258.899639 407.901115 L 2254.499997 400.098198 L 2260.298459 400.098198 " transform="matrix(0.999726, 0, 0, -0.999726, 0, 2389.082419)"/><path fill="none" stroke-width="0.70866" stroke-linecap="round" stroke-linejoin="round" stroke="#e8eaed" stroke-opacity="1" stroke-miterlimit="10" d="M 2258.899639 402.001063 L 2258.899639 398.101558 " transform="matrix(0.999726, 0, 0, -0.999726, 0, 2389.082419)"/><path fill="none" stroke-width="0.70866" stroke-linecap="round" stroke-linejoin="round" stroke="#e8eaed" stroke-opacity="1" stroke-miterlimit="10" d="M 2219.998364 401.80179 L 2223.600913 401.80179 L 2224.80046 401.500926 L 2225.601461 401.000789 L 2225.800734 400.301379 L 2225.800734 399.598061 L 2225.601461 398.800968 L 2225.101324 398.398514 L 2224.601187 398.101558 L 2223.901777 397.898377 L 2224.80046 397.601421 L 2225.300597 397.101284 L 2225.601461 396.69883 L 2225.800734 395.698556 L 2225.800734 394.499009 L 2225.601461 393.498735 L 2225.101324 392.799325 L 2224.300323 392.299188 L 2223.600913 391.998324 L 2219.998364 391.998324 " transform="matrix(0.999726, 0, 0, -0.999726, 0, 2389.082419)"/><path fill="none" stroke-width="0.70866" stroke-linecap="round" stroke-linejoin="round" stroke="#e8eaed" stroke-opacity="1" stroke-miterlimit="10" d="M 2185.500639 394.198145 L 2185.899186 394.999146 L 2186.700186 395.4016 L 2187.59887 395.698556 L 2189.09928 395.698556 L 2190.099554 395.4016 L 2190.798964 394.999146 L 2191.299101 394.198145 L 2191.299101 393.201779 L 2190.798964 392.299188 L 2185.500639 385.898999 L 2191.299101 385.898999 " transform="matrix(0.999726, 0, 0, -0.999726, 0, 2389.082419)"/><path fill="none" stroke-width="0.70866" stroke-linecap="round" stroke-linejoin="round" stroke="#e8eaed" stroke-opacity="1" stroke-miterlimit="10" d="M 2150.901323 386.699999 L 2153.898238 389.59923 L 2153.898238 379.901263 " transform="matrix(0.999726, 0, 0, -0.999726, 0, 2389.082419)"/><path fill="none" stroke-width="0.70866" stroke-linecap="round" stroke-linejoin="round" stroke="#e8eaed" stroke-opacity="1" stroke-miterlimit="10" d="M 2201.700386 503.798462 L 2202.200523 504.599462 L 2202.899933 505.099599 L 2203.900207 505.298873 L 2205.400618 505.298873 L 2206.299302 505.099599 L 2207.100302 504.599462 L 2207.498849 503.798462 L 2207.498849 502.899778 L 2207.100302 501.899504 L 2201.700386 495.600905 L 2207.498849 495.600905 " transform="matrix(0.999726, 0, 0, -0.999726, 0, 2389.082419)"/><path fill="none" stroke-width="0.70866" stroke-linecap="round" stroke-linejoin="round" stroke="#e8eaed" stroke-opacity="1" stroke-miterlimit="10" d="M 1969.699375 328.398882 L 1972.598606 331.298114 L 1972.598606 321.600146 " transform="matrix(0.999726, 0, 0, -0.999726, 0, 2389.082419)"/><path fill="none" stroke-width="0.70866" stroke-linecap="round" stroke-linejoin="round" stroke="#e8eaed" stroke-opacity="1" stroke-miterlimit="10" d="M 1976.498111 321.600146 L 1976.498111 329.59843 L 1976.798974 330.598703 L 1977.299111 331.09884 L 1977.998521 331.298114 L 1978.498658 331.298114 " transform="matrix(0.999726, 0, 0, -0.999726, 0, 2389.082419)"/><path fill="none" stroke-width="0.70866" stroke-linecap="round" stroke-linejoin="round" stroke="#e8eaed" stroke-opacity="1" stroke-miterlimit="10" d="M 2000.098321 328.398882 L 2003.00146 331.298114 L 2003.00146 321.600146 " transform="matrix(0.999726, 0, 0, -0.999726, 0, 2389.082419)"/><path fill="none" stroke-width="0.70866" stroke-linecap="round" stroke-linejoin="round" stroke="#e8eaed" stroke-opacity="1" stroke-miterlimit="10" d="M 2005.998374 321.600146 L 2005.998374 328.398882 L 2008.401376 328.398882 L 2008.901513 328.199609 L 2009.100786 327.898746 " transform="matrix(0.999726, 0, 0, -0.999726, 0, 2389.082419)"/><path fill="none" stroke-width="0.70866" stroke-linecap="round" stroke-linejoin="round" stroke="#e8eaed" stroke-opacity="1" stroke-miterlimit="10" d="M 2019.799027 324.999514 L 2024.698806 324.999514 " transform="matrix(0.999726, 0, 0, -0.999726, 0, 2389.082419)"/><path fill="none" stroke-width="0.70866" stroke-linecap="round" stroke-linejoin="round" stroke="#e8eaed" stroke-opacity="1" stroke-miterlimit="10" d="M 2035.400955 326.898472 L 2042.199691 326.898472 " transform="matrix(0.999726, 0, 0, -0.999726, 0, 2389.082419)"/><path fill="none" stroke-width="0.70866" stroke-linecap="round" stroke-linejoin="round" stroke="#e8eaed" stroke-opacity="1" stroke-miterlimit="10" d="M 2042.199691 331.298114 L 2035.400955 331.298114 L 2035.400955 321.600146 " transform="matrix(0.999726, 0, 0, -0.999726, 0, 2389.082419)"/></svg>