<svg xmlns="http://www.w3.org/2000/svg" viewBox="305.4 178.0 248.0 513.1"><path fill="none" stroke-width="0.70866" stroke-linecap="round" stroke-linejoin="round" stroke="#e8eaed" stroke-opacity="1" stroke-dasharray="21.684 5.42" stroke-miterlimit="10" d="M 489.800691 654.798661 L 441.799637 646.29823 " transform="matrix(0.99949, 0, 0, -0.99949, 0, 1190.023158)"/><path fill="none" stroke-width="0.70866" stroke-linecap="round" stroke-linejoin="round" stroke="#e8eaed" stroke-opacity="1" stroke-dasharray="20.243 5.06" stroke-miterlimit="10" d="M 493.701119 767.098147 L 485.798649 811.898349 " transform="matrix(0.99949, 0, 0, -0.99949, 0, 1190.023158)"/><path fill="none" stroke-width="0.70866" stroke-linecap="round" stroke-linejoin="round" stroke="#e8eaed" stroke-opacity="1" stroke-dasharray="20.243 5.06" stroke-miterlimit="10" d="M 450.800323 805.801488 L 458.800499 760.899672 " transform="matrix(0.99949, 0, 0, -0.99949, 0, 1190.023158)"/><path fill="none" stroke-width="0.70866" stroke-linecap="round" stroke-linejoin="round" stroke="#e8eaed" stroke-opacity="1" stroke-dasharray="20.243 5.06" stroke-miterlimit="10" d="M 423.798265 754.798903 L 415.899704 799.599105 " transform="matrix(0.99949, 0, 0, -0.99949, 0, 1190.023158)"/><path fill="none" stroke-width="0.70866" stroke-linecap="round" stroke-linejoin="round" stroke="#e8eaed" stroke-opacity="1" stroke-dasharray="25.748 6.436" stroke-miterlimit="10" d="M 379.201291 769.998064 L 531.298427 796.898508 " transform="matrix(0.99949, 0, 0, -0.99949, 0, 1190.023158)"/><path fill="none" stroke-width="0.70866" stroke-linecap="round" stroke-linejoin="round" stroke="#e8eaed" stroke-opacity="1" stroke-dasharray="25.024 6.256" stroke-miterlimit="10" d="M 459.601689 683.500806 L 469.399657 628.101446 " transform="matrix(0.99949, 0, 0, -0.99949, 0, 1190.023158)"/><path fill="none" stroke-width="0.70866" stroke-linecap="round" stroke-linejoin="round" stroke="#e8eaed" stroke-opacity="1" stroke-dasharray="8.253 3.537" stroke-miterlimit="10" d="M 453.598626 664.999178 L 526.198168 795.999612 " transform="matrix(0.99949, 0, 0, -0.99949, 0, 1190.023158)"/><path fill="none" stroke-width="0.70866" stroke-linecap="round" stroke-linejoin="round" stroke="#e8eaed" stroke-opacity="1" stroke-dasharray="27.815 6.954" stroke-miterlimit="10" d="M 481.800515 882.399164 L 351.698978 859.500762 " transform="matrix(0.99949, 0, 0, -0.99949, 0, 1190.023158)"/><path fill="none" stroke-width="0.70866" stroke-linecap="round" stroke-linejoin="round" stroke="#e8eaed" stroke-opacity="1" stroke-dasharray="20.243 5.06" stroke-miterlimit="10" d="M 403.100204 891.599171 L 410.998765 846.798969 " transform="matrix(0.99949, 0, 0, -0.99949, 0, 1190.023158)"/><path fill="none" stroke-width="0.70866" stroke-linecap="round" stroke-linejoin="round" stroke="#e8eaed" stroke-opacity="1" stroke-miterlimit="10" d="M 462.099057 688.800385 L 456.998798 678.001906 " transform="matrix(0.99949, 0, 0, -0.99949, 0, 1190.023158)"/><path fill="none" stroke-width="0.70866" stroke-linecap="round" stroke-linejoin="round" stroke="#e8eaed" stroke-opacity="1" stroke-miterlimit="10" d="M 465.198295 678.900802 L 454.599137 687.600554 " transform="matrix(0.99949, 0, 0, -0.99949, 0, 1190.023158)"/><path fill="none" stroke-width="0.70866" stroke-linecap="round" stroke-linejoin="round" stroke="#e8eaed" stroke-opacity="1" stroke-miterlimit="10" d="M 479.49856 653.000869 L 468.801696 785.799095 " transform="matrix(0.99949, 0, 0, -0.99949, 0, 1190.023158)"/><path fill="none" stroke-width="1.41732" stroke-linecap="round" stroke-linejoin="round" stroke="#e8eaed" stroke-opacity="1" stroke-miterlimit="10" d="M 522.801904 790.399098 L 529.801569 802.100381 " transform="matrix(0.99949, 0, 0, -0.99949, 0, 1190.023158)"/><path fill="none" stroke-width="1.41732" stroke-linecap="round" stroke-linejoin="round" stroke="#e8eaed" stroke-opacity="1" stroke-miterlimit="10" d="M 522.301649 800.70123 L 531.400041 791.200288 " transform="matrix(0.99949, 0, 0, -0.99949, 0, 1190.023158)"/><path fill="none" stroke-width="0.70866" stroke-linecap="round" stroke-linejoin="round" stroke="#e8eaed" stroke-opacity="1" stroke-miterlimit="10" d="M 405.699186 890.39934 L 317.599548 898.399515 " transform="matrix(0.99949, 0, 0, -0.99949, 0, 1190.023158)"/><path fill="none" stroke-width="0.70866" stroke-linecap="round" stroke-linejoin="round" stroke="#e8eaed" stroke-opacity="1" stroke-miterlimit="10" d="M 417.701404 881.199333 L 466.69906 792.900374 " transform="matrix(0.99949, 0, 0, -0.99949, 0, 1190.023158)"/><path fill="none" stroke-width="0.70866" stroke-linecap="round" stroke-linejoin="round" stroke="#e8eaed" stroke-opacity="1" stroke-miterlimit="10" d="M 495.999166 807.298346 L 493.998145 808.900726 L 492.001033 809.998942 L 490.000012 810.600812 L 487.998991 810.800132 L 486.001878 810.600812 L 484.000857 809.998942 L 481.999836 808.900726 L 480.100429 807.298346 L 478.599664 805.301233 L 478.001702 804.101402 " transform="matrix(0.99949, 0, 0, -0.99949, 0, 1190.023158)"/><path fill="none" stroke-width="0.70866" stroke-linecap="round" stroke-linejoin="round" stroke="#e8eaed" stroke-opacity="1" stroke-miterlimit="10" d="M 501.701294 799.09885 L 500.098914 802.198087 L 497.800867 805.301233 L 495.90146 807.298346 " transform="matrix(0.99949, 0, 0, -0.99949, 0, 1190.023158)"/><path fill="none" stroke-width="0.70866" stroke-linecap="round" stroke-linejoin="round" stroke="#e8eaed" stroke-opacity="1" stroke-miterlimit="10" d="M 503.800021 781.199092 L 504.198662 784.700878 L 504.198662 788.198757 L 503.800021 791.700543 L 503.100446 795.198422 L 501.799 798.700209 L 501.701294 799.09885 " transform="matrix(0.99949, 0, 0, -0.99949, 0, 1190.023158)"/><path fill="none" stroke-width="0.70866" stroke-linecap="round" stroke-linejoin="round" stroke="#e8eaed" stroke-opacity="1" stroke-miterlimit="10" d="M 498.101802 770.701548 L 500.399849 773.10121 L 501.998321 775.598578 L 503.100446 778.099854 L 503.698407 780.60113 L 503.800021 781.300706 " transform="matrix(0.99949, 0, 0, -0.99949, 0, 1190.023158)"/><path fill="none" stroke-width="0.70866" stroke-linecap="round" stroke-linejoin="round" stroke="#e8eaed" stroke-opacity="1" stroke-miterlimit="10" d="M 488.499246 769.001462 L 490.398652 768.598913 L 492.298059 768.501207 L 494.201374 768.798233 L 496.100781 769.501717 L 498.000187 770.701548 L 498.101802 770.799254 " transform="matrix(0.99949, 0, 0, -0.99949, 0, 1190.023158)"/><path fill="none" stroke-width="0.70866" stroke-linecap="round" stroke-linejoin="round" stroke="#e8eaed" stroke-opacity="1" stroke-miterlimit="10" d="M 479.600174 777.001637 L 481.10094 774.500361 L 483.398987 772.100699 L 485.900264 770.298999 L 488.40154 769.099168 L 488.499246 769.099168 " transform="matrix(0.99949, 0, 0, -0.99949, 0, 1190.023158)"/><path fill="none" stroke-width="0.70866" stroke-linecap="round" stroke-linejoin="round" stroke="#e8eaed" stroke-opacity="1" stroke-miterlimit="10" d="M 475.398812 794.498846 L 475.398812 791.000968 L 475.801361 787.499181 L 476.598643 784.001303 L 477.798474 780.499516 L 479.600174 777.001637 " transform="matrix(0.99949, 0, 0, -0.99949, 0, 1190.023158)"/><path fill="none" stroke-width="0.70866" stroke-linecap="round" stroke-linejoin="round" stroke="#e8eaed" stroke-opacity="1" stroke-miterlimit="10" d="M 477.900088 804.101402 L 476.598643 800.998256 L 475.801361 797.899019 L 475.398812 794.799781 L 475.398812 794.498846 " transform="matrix(0.99949, 0, 0, -0.99949, 0, 1190.023158)"/><path fill="none" stroke-width="0.70866" stroke-linecap="round" stroke-linejoin="round" stroke="#e8eaed" stroke-opacity="1" stroke-miterlimit="10" d="M 461.00084 801.09987 L 458.999819 802.698342 L 456.998798 803.800467 L 455.001686 804.398429 L 453.000665 804.601657 L 450.999644 804.398429 L 448.998623 803.800467 L 447.00151 802.698342 L 445.098195 801.09987 L 443.601338 799.09885 L 442.999468 797.899019 " transform="matrix(0.99949, 0, 0, -0.99949, 0, 1190.023158)"/><path fill="none" stroke-width="0.70866" stroke-linecap="round" stroke-linejoin="round" stroke="#e8eaed" stroke-opacity="1" stroke-miterlimit="10" d="M 466.800675 792.900374 L 465.198295 795.999612 L 462.900247 799.09885 L 461.00084 801.09987 " transform="matrix(0.99949, 0, 0, -0.99949, 0, 1190.023158)"/><path fill="none" stroke-width="0.70866" stroke-linecap="round" stroke-linejoin="round" stroke="#e8eaed" stroke-opacity="1" stroke-miterlimit="10" d="M 468.801696 775.098323 L 469.200336 778.600109 L 469.200336 782.101896 L 468.801696 785.599774 L 468.098212 789.101561 L 466.800675 792.59944 L 466.69906 792.99808 " transform="matrix(0.99949, 0, 0, -0.99949, 0, 1190.023158)"/><path fill="none" stroke-width="0.70866" stroke-linecap="round" stroke-linejoin="round" stroke="#e8eaed" stroke-opacity="1" stroke-miterlimit="10" d="M 463.099567 764.499165 L 465.401523 766.898826 L 466.999995 769.400103 L 468.098212 771.901379 L 468.700081 774.398747 L 468.801696 775.098323 " transform="matrix(0.99949, 0, 0, -0.99949, 0, 1190.023158)"/><path fill="none" stroke-width="0.70866" stroke-linecap="round" stroke-linejoin="round" stroke="#e8eaed" stroke-opacity="1" stroke-miterlimit="10" d="M 453.50092 762.799078 L 455.400327 762.400437 L 457.299733 762.298823 L 459.19914 762.599758 L 461.098546 763.299334 L 463.001861 764.499165 L 463.099567 764.600779 " transform="matrix(0.99949, 0, 0, -0.99949, 0, 1190.023158)"/><path fill="none" stroke-width="0.70866" stroke-linecap="round" stroke-linejoin="round" stroke="#e8eaed" stroke-opacity="1" stroke-miterlimit="10" d="M 444.601848 770.799254 L 446.098706 768.301886 L 448.400661 765.898316 L 450.901938 764.100524 L 453.399306 762.900693 L 453.50092 762.900693 " transform="matrix(0.99949, 0, 0, -0.99949, 0, 1190.023158)"/><path fill="none" stroke-width="0.70866" stroke-linecap="round" stroke-linejoin="round" stroke="#e8eaed" stroke-opacity="1" stroke-miterlimit="10" d="M 440.400486 788.300371 L 440.400486 784.798584 L 440.799127 781.300706 L 441.600317 777.798919 L 442.800148 774.301041 L 444.601848 770.799254 " transform="matrix(0.99949, 0, 0, -0.99949, 0, 1190.023158)"/><path fill="none" stroke-width="0.70866" stroke-linecap="round" stroke-linejoin="round" stroke="#e8eaed" stroke-opacity="1" stroke-miterlimit="10" d="M 442.901762 797.899019 L 441.600317 794.799781 L 440.799127 791.700543 L 440.400486 788.601306 L 440.400486 788.300371 " transform="matrix(0.99949, 0, 0, -0.99949, 0, 1190.023158)"/><path fill="none" stroke-width="0.70866" stroke-linecap="round" stroke-linejoin="round" stroke="#e8eaed" stroke-opacity="1" stroke-miterlimit="10" d="M 425.998606 794.999101 L 424.001494 796.601482 L 422.000473 797.699698 L 419.999452 798.301568 L 417.998431 798.500888 L 416.001318 798.301568 L 414.000297 797.699698 L 411.999276 796.601482 L 410.099869 794.999101 L 408.599104 792.99808 L 408.001142 791.79825 " transform="matrix(0.99949, 0, 0, -0.99949, 0, 1190.023158)"/><path fill="none" stroke-width="0.70866" stroke-linecap="round" stroke-linejoin="round" stroke="#e8eaed" stroke-opacity="1" stroke-miterlimit="10" d="M 431.798441 786.701899 L 430.199969 789.801137 L 427.901921 792.900374 L 425.998606 794.901395 " transform="matrix(0.99949, 0, 0, -0.99949, 0, 1190.023158)"/><path fill="none" stroke-width="0.70866" stroke-linecap="round" stroke-linejoin="round" stroke="#e8eaed" stroke-opacity="1" stroke-miterlimit="10" d="M 433.901076 768.899847 L 434.299717 772.401634 L 434.299717 775.899513 L 433.901076 779.401299 L 433.2015 782.899178 L 431.900055 786.400964 L 431.798441 786.799605 " transform="matrix(0.99949, 0, 0, -0.99949, 0, 1190.023158)"/><path fill="none" stroke-width="0.70866" stroke-linecap="round" stroke-linejoin="round" stroke="#e8eaed" stroke-opacity="1" stroke-miterlimit="10" d="M 428.101242 758.398396 L 430.399289 760.798057 L 432.001669 763.299334 L 433.099886 765.80061 L 433.701755 768.301886 L 433.799461 769.001462 " transform="matrix(0.99949, 0, 0, -0.99949, 0, 1190.023158)"/><path fill="none" stroke-width="0.70866" stroke-linecap="round" stroke-linejoin="round" stroke="#e8eaed" stroke-opacity="1" stroke-miterlimit="10" d="M 418.498686 756.698309 L 420.398092 756.299668 L 422.301407 756.198054 L 424.200814 756.498989 L 426.100221 757.198565 L 427.999627 758.398396 L 428.101242 758.50001 " transform="matrix(0.99949, 0, 0, -0.99949, 0, 1190.023158)"/><path fill="none" stroke-width="0.70866" stroke-linecap="round" stroke-linejoin="round" stroke="#e8eaed" stroke-opacity="1" stroke-miterlimit="10" d="M 409.599614 764.600779 L 411.10038 762.099503 L 413.398427 759.699841 L 415.899704 757.89814 L 418.40098 756.698309 L 418.498686 756.698309 " transform="matrix(0.99949, 0, 0, -0.99949, 0, 1190.023158)"/><path fill="none" stroke-width="0.70866" stroke-linecap="round" stroke-linejoin="round" stroke="#e8eaed" stroke-opacity="1" stroke-miterlimit="10" d="M 405.398252 782.101896 L 405.398252 778.600109 L 405.800801 775.098323 L 406.598083 771.600444 L 407.801822 768.098657 L 409.599614 764.600779 " transform="matrix(0.99949, 0, 0, -0.99949, 0, 1190.023158)"/><path fill="none" stroke-width="0.70866" stroke-linecap="round" stroke-linejoin="round" stroke="#e8eaed" stroke-opacity="1" stroke-miterlimit="10" d="M 408.001142 791.700543 L 406.699697 788.601306 L 405.898507 785.49816 L 405.499866 782.398923 L 405.499866 782.101896 " transform="matrix(0.99949, 0, 0, -0.99949, 0, 1190.023158)"/><path fill="none" stroke-width="0.70866" stroke-linecap="round" stroke-linejoin="round" stroke="#e8eaed" stroke-opacity="1" stroke-miterlimit="10" d="M 471.701613 668.301644 L 469.700592 669.900116 L 467.699571 670.998333 L 465.69855 671.600202 L 463.701437 671.799523 L 461.700416 671.600202 L 459.699395 670.998333 L 457.698374 669.900116 L 455.798967 668.301644 L 454.298202 666.300623 L 453.70024 665.100793 " transform="matrix(0.99949, 0, 0, -0.99949, 0, 1190.023158)"/><path fill="none" stroke-width="0.70866" stroke-linecap="round" stroke-linejoin="round" stroke="#e8eaed" stroke-opacity="1" stroke-miterlimit="10" d="M 477.399833 660.000534 L 475.801361 663.099772 L 473.499405 666.199009 L 471.599998 668.20003 " transform="matrix(0.99949, 0, 0, -0.99949, 0, 1190.023158)"/><path fill="none" stroke-width="0.70866" stroke-linecap="round" stroke-linejoin="round" stroke="#e8eaed" stroke-opacity="1" stroke-miterlimit="10" d="M 479.49856 642.198482 L 479.901109 645.700269 L 479.901109 649.198147 L 479.49856 652.699934 L 478.798984 656.201721 L 477.501447 659.699599 L 477.399833 660.09824 " transform="matrix(0.99949, 0, 0, -0.99949, 0, 1190.023158)"/><path fill="none" stroke-width="0.70866" stroke-linecap="round" stroke-linejoin="round" stroke="#e8eaed" stroke-opacity="1" stroke-miterlimit="10" d="M 473.80034 631.700938 L 476.098387 634.1006 L 477.700767 636.601877 L 478.798984 639.099245 L 479.400854 641.600521 L 479.49856 642.300096 " transform="matrix(0.99949, 0, 0, -0.99949, 0, 1190.023158)"/><path fill="none" stroke-width="0.70866" stroke-linecap="round" stroke-linejoin="round" stroke="#e8eaed" stroke-opacity="1" stroke-miterlimit="10" d="M 464.201692 630.000852 L 466.101099 629.598303 L 468.000506 629.500597 L 469.899912 629.801532 L 471.799319 630.501108 L 473.698725 631.700938 L 473.80034 631.798645 " transform="matrix(0.99949, 0, 0, -0.99949, 0, 1190.023158)"/><path fill="none" stroke-width="0.70866" stroke-linecap="round" stroke-linejoin="round" stroke="#e8eaed" stroke-opacity="1" stroke-miterlimit="10" d="M 455.298712 637.899414 L 456.799478 635.398137 L 459.101434 632.998476 L 461.598802 631.200683 L 464.100078 630.000852 L 464.201692 630.000852 " transform="matrix(0.99949, 0, 0, -0.99949, 0, 1190.023158)"/><path fill="none" stroke-width="0.70866" stroke-linecap="round" stroke-linejoin="round" stroke="#e8eaed" stroke-opacity="1" stroke-miterlimit="10" d="M 451.101258 655.400531 L 451.101258 651.898744 L 451.499899 648.400865 L 452.301089 644.899079 L 453.50092 641.4012 L 455.298712 637.899414 " transform="matrix(0.99949, 0, 0, -0.99949, 0, 1190.023158)"/><path fill="none" stroke-width="0.70866" stroke-linecap="round" stroke-linejoin="round" stroke="#e8eaed" stroke-opacity="1" stroke-miterlimit="10" d="M 453.598626 664.999178 L 452.301089 661.899941 L 451.499899 658.800703 L 451.101258 655.701465 L 451.101258 655.400531 " transform="matrix(0.99949, 0, 0, -0.99949, 0, 1190.023158)"/><path fill="none" stroke-width="0.70866" stroke-linecap="round" stroke-linejoin="round" stroke="#e8eaed" stroke-opacity="1" stroke-miterlimit="10" d="M 413.300721 886.999167 L 411.2997 888.601548 L 409.298679 889.699764 L 407.301567 890.301634 L 405.300546 890.500954 L 403.299525 890.301634 L 401.298504 889.699764 L 399.301391 888.601548 L 397.398076 886.999167 L 395.901219 884.998146 L 395.299349 883.798316 " transform="matrix(0.99949, 0, 0, -0.99949, 0, 1190.023158)"/><path fill="none" stroke-width="0.70866" stroke-linecap="round" stroke-linejoin="round" stroke="#e8eaed" stroke-opacity="1" stroke-miterlimit="10" d="M 418.998941 878.799671 L 417.400469 881.898909 L 415.098513 884.998146 L 413.199107 886.999167 " transform="matrix(0.99949, 0, 0, -0.99949, 0, 1190.023158)"/><path fill="none" stroke-width="0.70866" stroke-linecap="round" stroke-linejoin="round" stroke="#e8eaed" stroke-opacity="1" stroke-miterlimit="10" d="M 421.101576 860.899913 L 421.500217 864.4017 L 421.500217 867.899579 L 421.101576 871.401365 L 420.398092 874.899244 L 419.100555 878.40103 L 418.998941 878.799671 " transform="matrix(0.99949, 0, 0, -0.99949, 0, 1190.023158)"/><path fill="none" stroke-width="0.70866" stroke-linecap="round" stroke-linejoin="round" stroke="#e8eaed" stroke-opacity="1" stroke-miterlimit="10" d="M 415.301742 850.398461 L 417.59979 852.798123 L 419.198262 855.2994 L 420.300386 857.800676 L 420.898348 860.301952 L 420.999962 861.001528 " transform="matrix(0.99949, 0, 0, -0.99949, 0, 1190.023158)"/><path fill="none" stroke-width="0.70866" stroke-linecap="round" stroke-linejoin="round" stroke="#e8eaed" stroke-opacity="1" stroke-miterlimit="10" d="M 405.800801 848.698375 L 407.700207 848.299734 L 409.599614 848.19812 L 411.499021 848.499055 L 413.398427 849.198631 L 415.301742 850.398461 L 415.399448 850.500076 " transform="matrix(0.99949, 0, 0, -0.99949, 0, 1190.023158)"/><path fill="none" stroke-width="0.70866" stroke-linecap="round" stroke-linejoin="round" stroke="#e8eaed" stroke-opacity="1" stroke-miterlimit="10" d="M 396.800115 856.698551 L 398.30088 854.201183 L 400.598928 851.801521 L 403.100204 849.999821 L 405.60148 848.79999 L 405.699186 848.79999 " transform="matrix(0.99949, 0, 0, -0.99949, 0, 1190.023158)"/><path fill="none" stroke-width="0.70866" stroke-linecap="round" stroke-linejoin="round" stroke="#e8eaed" stroke-opacity="1" stroke-miterlimit="10" d="M 392.598752 874.199668 L 392.598752 870.70179 L 393.001301 867.200003 L 393.798583 863.698216 L 394.998414 860.200338 L 396.800115 856.698551 " transform="matrix(0.99949, 0, 0, -0.99949, 0, 1190.023158)"/><path fill="none" stroke-width="0.70866" stroke-linecap="round" stroke-linejoin="round" stroke="#e8eaed" stroke-opacity="1" stroke-miterlimit="10" d="M 395.201643 883.798316 L 393.900198 880.699078 L 393.099007 877.59984 L 392.700367 874.500603 L 392.700367 874.199668 " transform="matrix(0.99949, 0, 0, -0.99949, 0, 1190.023158)"/><path fill="none" stroke-width="0.70866" stroke-linecap="round" stroke-linejoin="round" stroke="#e8eaed" stroke-opacity="1" stroke-miterlimit="10" d="M 391.398921 520.69899 L 392.000791 521.50018 L 392.798073 522.098141 L 393.900198 522.399076 L 395.600284 522.399076 L 396.6985 522.098141 L 397.601305 521.50018 L 398.10156 520.69899 L 398.10156 519.600773 L 397.601305 518.498648 L 391.398921 511.198048 L 398.10156 511.198048 " transform="matrix(0.99949, 0, 0, -0.99949, 0, 1190.023158)"/><path fill="none" stroke-width="0.70866" stroke-linecap="round" stroke-linejoin="round" stroke="#e8eaed" stroke-opacity="1" stroke-miterlimit="10" d="M 402.599949 511.198048 L 402.599949 520.398055 L 402.799269 521.50018 L 403.401139 522.098141 L 404.198421 522.399076 L 404.80029 522.399076 " transform="matrix(0.99949, 0, 0, -0.99949, 0, 1190.023158)"/><path fill="none" stroke-width="0.70866" stroke-linecap="round" stroke-linejoin="round" stroke="#e8eaed" stroke-opacity="1" stroke-miterlimit="10" d="M 401.400118 518.498648 L 404.80029 518.498648 " transform="matrix(0.99949, 0, 0, -0.99949, 0, 1190.023158)"/><path fill="none" stroke-width="0.70866" stroke-linecap="round" stroke-linejoin="round" stroke="#e8eaed" stroke-opacity="1" stroke-miterlimit="10" d="M 408.098848 515.098476 L 413.699362 515.098476 " transform="matrix(0.99949, 0, 0, -0.99949, 0, 1190.023158)"/><path fill="none" stroke-width="0.70866" stroke-linecap="round" stroke-linejoin="round" stroke="#e8eaed" stroke-opacity="1" stroke-miterlimit="10" d="M 417.001828 518.998904 L 420.398092 522.399076 L 420.398092 511.198048 " transform="matrix(0.99949, 0, 0, -0.99949, 0, 1190.023158)"/><path fill="none" stroke-width="0.70866" stroke-linecap="round" stroke-linejoin="round" stroke="#e8eaed" stroke-opacity="1" stroke-miterlimit="10" d="M 424.798775 511.198048 L 424.798775 520.398055 L 425.09971 521.50018 L 425.70158 522.098141 L 426.498862 522.399076 L 427.100731 522.399076 " transform="matrix(0.99949, 0, 0, -0.99949, 0, 1190.023158)"/><path fill="none" stroke-width="0.70866" stroke-linecap="round" stroke-linejoin="round" stroke="#e8eaed" stroke-opacity="1" stroke-miterlimit="10" d="M 423.700559 518.498648 L 427.100731 518.498648 " transform="matrix(0.99949, 0, 0, -0.99949, 0, 1190.023158)"/><path fill="none" stroke-width="0.70866" stroke-linecap="round" stroke-linejoin="round" stroke="#e8eaed" stroke-opacity="1" stroke-miterlimit="10" d="M 443.198789 518.998904 L 446.598961 522.399076 L 446.598961 511.198048 " transform="matrix(0.99949, 0, 0, -0.99949, 0, 1190.023158)"/><path fill="none" stroke-width="0.70866" stroke-linecap="round" stroke-linejoin="round" stroke="#e8eaed" stroke-opacity="1" stroke-miterlimit="10" d="M 449.901427 511.198048 L 449.901427 518.998904 L 452.69973 518.998904 L 453.199985 518.799583 L 453.50092 518.498648 " transform="matrix(0.99949, 0, 0, -0.99949, 0, 1190.023158)"/><path fill="none" stroke-width="0.70866" stroke-linecap="round" stroke-linejoin="round" stroke="#e8eaed" stroke-opacity="1" stroke-miterlimit="10" d="M 456.901092 515.098476 L 462.399992 515.098476 " transform="matrix(0.99949, 0, 0, -0.99949, 0, 1190.023158)"/><path fill="none" stroke-width="0.70866" stroke-linecap="round" stroke-linejoin="round" stroke="#e8eaed" stroke-opacity="1" stroke-miterlimit="10" d="M 465.800164 517.400432 L 473.601019 517.400432 " transform="matrix(0.99949, 0, 0, -0.99949, 0, 1190.023158)"/><path fill="none" stroke-width="0.70866" stroke-linecap="round" stroke-linejoin="round" stroke="#e8eaed" stroke-opacity="1" stroke-miterlimit="10" d="M 473.601019 522.399076 L 465.800164 522.399076 L 465.800164 511.198048 " transform="matrix(0.99949, 0, 0, -0.99949, 0, 1190.023158)"/><path fill="none" stroke-width="0.70866" stroke-linecap="round" stroke-linejoin="round" stroke="#e8eaed" stroke-opacity="1" stroke-miterlimit="10" d="M 533.901317 806.301743 L 541.698264 806.301743 " transform="matrix(0.99949, 0, 0, -0.99949, 0, 1190.023158)"/><path fill="none" stroke-width="0.70866" stroke-linecap="round" stroke-linejoin="round" stroke="#e8eaed" stroke-opacity="1" stroke-miterlimit="10" d="M 541.698264 811.300388 L 533.901317 811.300388 L 533.901317 800.09936 " transform="matrix(0.99949, 0, 0, -0.99949, 0, 1190.023158)"/><path fill="none" stroke-width="0.70866" stroke-linecap="round" stroke-linejoin="round" stroke="#e8eaed" stroke-opacity="1" stroke-miterlimit="10" d="M 491.000522 803.401826 L 495.10027 803.401826 L 496.499421 803.100891 L 497.398318 802.499022 L 497.699252 801.70174 L 497.699252 800.90055 L 497.398318 800.001654 L 496.800356 799.501399 L 496.300101 799.200464 L 495.401205 798.899529 L 496.499421 798.598594 L 497.101291 798.098339 L 497.398318 797.500378 L 497.699252 796.398253 L 497.699252 794.999101 L 497.398318 793.900885 L 496.800356 793.099695 L 495.999166 792.501733 L 495.10027 792.200799 L 491.000522 792.200799 " transform="matrix(0.99949, 0, 0, -0.99949, 0, 1190.023158)"/><path fill="none" stroke-width="0.70866" stroke-linecap="round" stroke-linejoin="round" stroke="#e8eaed" stroke-opacity="1" stroke-miterlimit="10" d="M 456.099902 796.699188 L 456.701772 797.500378 L 457.499054 798.098339 L 458.601179 798.399274 L 460.301265 798.399274 L 461.399481 798.098339 L 462.200671 797.500378 L 462.798633 796.699188 L 462.798633 795.600971 L 462.200671 794.498846 L 456.099902 787.198246 L 462.798633 787.198246 " transform="matrix(0.99949, 0, 0, -0.99949, 0, 1190.023158)"/><path fill="none" stroke-width="0.70866" stroke-linecap="round" stroke-linejoin="round" stroke="#e8eaed" stroke-opacity="1" stroke-miterlimit="10" d="M 467.50025 663.900962 L 470.900423 667.19952 L 470.900423 656.100106 " transform="matrix(0.99949, 0, 0, -0.99949, 0, 1190.023158)"/><path fill="none" stroke-width="0.70866" stroke-linecap="round" stroke-linejoin="round" stroke="#e8eaed" stroke-opacity="1" stroke-miterlimit="10" d="M 421.699538 788.800626 L 424.998096 792.200799 L 424.998096 780.999771 " transform="matrix(0.99949, 0, 0, -0.99949, 0, 1190.023158)"/><path fill="none" stroke-width="0.70866" stroke-linecap="round" stroke-linejoin="round" stroke="#e8eaed" stroke-opacity="1" stroke-miterlimit="10" d="M 406.801311 591.000484 L 409.701228 593.900402 L 409.701228 584.20014 " transform="matrix(0.99949, 0, 0, -0.99949, 0, 1190.023158)"/><path fill="none" stroke-width="0.70866" stroke-linecap="round" stroke-linejoin="round" stroke="#e8eaed" stroke-opacity="1" stroke-miterlimit="10" d="M 412.698852 587.600312 L 417.498175 587.600312 " transform="matrix(0.99949, 0, 0, -0.99949, 0, 1190.023158)"/><path fill="none" stroke-width="0.70866" stroke-linecap="round" stroke-linejoin="round" stroke="#e8eaed" stroke-opacity="1" stroke-miterlimit="10" d="M 420.499707 584.20014 L 424.0992 584.20014 L 425.09971 584.39946 L 425.599965 584.700395 L 426.100221 585.20065 L 426.299541 586.099546 L 426.299541 589.101078 L 426.100221 589.999974 L 425.599965 590.500229 L 425.09971 590.801164 L 424.0992 591.000484 L 420.499707 591.000484 L 420.499707 581.300223 " transform="matrix(0.99949, 0, 0, -0.99949, 0, 1190.023158)"/><path fill="none" stroke-width="0.70866" stroke-linecap="round" stroke-linejoin="round" stroke="#e8eaed" stroke-opacity="1" stroke-miterlimit="10" d="M 435.100907 591.000484 L 435.100907 584.20014 L 431.3998 584.20014 L 430.500903 584.39946 L 430.000648 584.700395 L 429.500393 585.20065 L 429.199458 586.099546 L 429.199458 591.000484 " transform="matrix(0.99949, 0, 0, -0.99949, 0, 1190.023158)"/><path fill="none" stroke-width="0.70866" stroke-linecap="round" stroke-linejoin="round" stroke="#e8eaed" stroke-opacity="1" stroke-miterlimit="10" d="M 438.000824 593.900402 L 438.000824 585.700905 L 438.200144 584.39946 L 438.7004 584.20014 L 439.001334 584.20014 " transform="matrix(0.99949, 0, 0, -0.99949, 0, 1190.023158)"/><path fill="none" stroke-width="0.70866" stroke-linecap="round" stroke-linejoin="round" stroke="#e8eaed" stroke-opacity="1" stroke-miterlimit="10" d="M 441.901251 593.900402 L 441.901251 585.700905 L 442.100572 584.39946 L 442.600827 584.20014 L 442.901762 584.20014 " transform="matrix(0.99949, 0, 0, -0.99949, 0, 1190.023158)"/><path fill="none" stroke-width="0.70866" stroke-linecap="round" stroke-linejoin="round" stroke="#e8eaed" stroke-opacity="1" stroke-miterlimit="10" d="M 451.601513 584.20014 L 447.998112 584.20014 L 447.00151 584.39946 L 446.501255 584.700395 L 446.001 585.20065 L 445.801679 586.099546 L 445.801679 589.101078 L 446.001 589.999974 L 446.501255 590.500229 L 447.00151 590.801164 L 447.998112 591.000484 L 449.498878 591.000484 L 450.401682 590.801164 L 450.901938 590.500229 L 451.398285 589.999974 L 451.601513 589.101078 L 451.601513 587.600312 L 445.801679 587.600312 " transform="matrix(0.99949, 0, 0, -0.99949, 0, 1190.023158)"/><path fill="none" stroke-width="0.70866" stroke-linecap="round" stroke-linejoin="round" stroke="#e8eaed" stroke-opacity="1" stroke-miterlimit="10" d="M 454.599137 591.000484 L 457.499054 584.20014 L 460.398971 591.000484 " transform="matrix(0.99949, 0, 0, -0.99949, 0, 1190.023158)"/><path fill="none" stroke-width="0.70866" stroke-linecap="round" stroke-linejoin="round" stroke="#e8eaed" stroke-opacity="1" stroke-miterlimit="10" d="M 412.698852 562.798595 L 412.698852 567.601827 L 412.401825 568.598429 L 411.90157 569.098685 L 411.401315 569.301913 L 410.49851 569.59894 L 406.801311 569.59894 " transform="matrix(0.99949, 0, 0, -0.99949, 0, 1190.023158)"/><path fill="none" stroke-width="0.70866" stroke-linecap="round" stroke-linejoin="round" stroke="#e8eaed" stroke-opacity="1" stroke-miterlimit="10" d="M 406.801311 572.498857 L 406.801311 562.798595 " transform="matrix(0.99949, 0, 0, -0.99949, 0, 1190.023158)"/><path fill="none" stroke-width="0.70866" stroke-linecap="round" stroke-linejoin="round" stroke="#e8eaed" stroke-opacity="1" stroke-miterlimit="10" d="M 419.198262 569.59894 L 417.79911 569.59894 L 416.7986 569.301913 L 416.298344 569.098685 L 415.798089 568.598429 L 415.598769 567.601827 L 415.598769 564.70191 L 415.798089 563.701399 L 416.298344 563.201144 L 416.7986 563.001824 L 417.79911 562.798595 L 419.198262 562.798595 L 420.198772 563.001824 L 420.699027 563.201144 L 421.199283 563.701399 L 421.398603 564.70191 L 421.398603 567.601827 L 421.199283 568.598429 L 420.699027 569.098685 L 420.198772 569.301913 L 419.198262 569.59894 " transform="matrix(0.99949, 0, 0, -0.99949, 0, 1190.023158)"/><path fill="none" stroke-width="0.70866" stroke-linecap="round" stroke-linejoin="round" stroke="#e8eaed" stroke-opacity="1" stroke-miterlimit="10" d="M 427.999627 569.59894 L 426.600476 569.59894 L 425.599965 569.301913 L 425.09971 569.098685 L 424.599455 568.598429 L 424.400134 567.601827 L 424.400134 564.70191 L 424.599455 563.701399 L 425.09971 563.201144 L 425.599965 563.001824 L 426.600476 562.798595 L 427.999627 562.798595 L 429.000138 563.001824 L 429.500393 563.201144 L 430.000648 563.701399 L 430.199969 564.70191 L 430.199969 567.601827 L 430.000648 568.598429 L 429.500393 569.098685 L 429.000138 569.301913 L 427.999627 569.59894 " transform="matrix(0.99949, 0, 0, -0.99949, 0, 1190.023158)"/><path fill="none" stroke-width="0.70866" stroke-linecap="round" stroke-linejoin="round" stroke="#e8eaed" stroke-opacity="1" stroke-miterlimit="10" d="M 439.001334 562.798595 L 434.799972 566.398088 " transform="matrix(0.99949, 0, 0, -0.99949, 0, 1190.023158)"/><path fill="none" stroke-width="0.70866" stroke-linecap="round" stroke-linejoin="round" stroke="#e8eaed" stroke-opacity="1" stroke-miterlimit="10" d="M 433.099886 565.198257 L 439.001334 569.59894 " transform="matrix(0.99949, 0, 0, -0.99949, 0, 1190.023158)"/><path fill="none" stroke-width="0.70866" stroke-linecap="round" stroke-linejoin="round" stroke="#e8eaed" stroke-opacity="1" stroke-miterlimit="10" d="M 433.099886 572.498857 L 433.099886 562.798595 " transform="matrix(0.99949, 0, 0, -0.99949, 0, 1190.023158)"/><path fill="none" stroke-width="0.70866" stroke-linecap="round" stroke-linejoin="round" stroke="#e8eaed" stroke-opacity="1" stroke-miterlimit="10" d="M 449.698198 569.59894 L 453.399306 569.59894 L 454.298202 569.301913 L 454.798457 569.098685 L 455.298712 568.598429 L 455.501941 567.601827 L 455.501941 564.70191 L 455.298712 563.701399 L 454.798457 563.201144 L 454.298202 563.001824 L 453.399306 562.798595 L 449.698198 562.798595 L 449.698198 572.498857 " transform="matrix(0.99949, 0, 0, -0.99949, 0, 1190.023158)"/><path fill="none" stroke-width="0.70866" stroke-linecap="round" stroke-linejoin="round" stroke="#e8eaed" stroke-opacity="1" stroke-miterlimit="10" d="M 458.499564 572.498857 L 458.499564 564.201655 L 458.698885 563.001824 L 459.19914 562.798595 L 459.39846 562.798595 " transform="matrix(0.99949, 0, 0, -0.99949, 0, 1190.023158)"/><path fill="none" stroke-width="0.70866" stroke-linecap="round" stroke-linejoin="round" stroke="#e8eaed" stroke-opacity="1" stroke-miterlimit="10" d="M 465.999485 569.59894 L 464.600333 569.59894 L 463.599823 569.301913 L 463.099567 569.098685 L 462.599312 568.598429 L 462.399992 567.601827 L 462.399992 564.70191 L 462.599312 563.701399 L 463.099567 563.201144 L 463.599823 563.001824 L 464.600333 562.798595 L 465.999485 562.798595 L 466.999995 563.001824 L 467.50025 563.201144 L 468.000506 563.701399 L 468.199826 564.70191 L 468.199826 567.601827 L 468.000506 568.598429 L 467.50025 569.098685 L 466.999995 569.301913 L 465.999485 569.59894 " transform="matrix(0.99949, 0, 0, -0.99949, 0, 1190.023158)"/><path fill="none" stroke-width="0.70866" stroke-linecap="round" stroke-linejoin="round" stroke="#e8eaed" stroke-opacity="1" stroke-miterlimit="10" d="M 477.001192 569.59894 L 473.300085 569.59894 L 472.401188 569.301913 L 471.900933 569.098685 L 471.400678 568.598429 L 471.099743 567.601827 L 471.099743 564.70191 L 471.400678 563.701399 L 471.900933 563.201144 L 472.401188 563.001824 L 473.300085 562.798595 L 477.001192 562.798595 " transform="matrix(0.99949, 0, 0, -0.99949, 0, 1190.023158)"/><path fill="none" stroke-width="0.70866" stroke-linecap="round" stroke-linejoin="round" stroke="#e8eaed" stroke-opacity="1" stroke-miterlimit="10" d="M 485.798649 562.798595 L 481.601195 566.398088 " transform="matrix(0.99949, 0, 0, -0.99949, 0, 1190.023158)"/><path fill="none" stroke-width="0.70866" stroke-linecap="round" stroke-linejoin="round" stroke="#e8eaed" stroke-opacity="1" stroke-miterlimit="10" d="M 479.901109 565.198257 L 485.798649 569.59894 " transform="matrix(0.99949, 0, 0, -0.99949, 0, 1190.023158)"/><path fill="none" stroke-width="0.70866" stroke-linecap="round" stroke-linejoin="round" stroke="#e8eaed" stroke-opacity="1" stroke-miterlimit="10" d="M 479.901109 572.498857 L 479.901109 562.798595 " transform="matrix(0.99949, 0, 0, -0.99949, 0, 1190.023158)"/><path fill="none" stroke-width="1.41732" stroke-linecap="round" stroke-linejoin="round" stroke="#e8eaed" stroke-opacity="1" stroke-miterlimit="10" d="M 392.798073 990.700516 L 385.700701 990.700516 L 385.700701 1000.498484 L 394.099518 1000.498484 L 395.799604 999.998229 L 397.101049 999.001627 L 397.601305 998.001116 L 397.999946 996.598057 L 397.999946 994.600944 L 397.601305 993.201792 L 397.101049 992.201282 L 395.799604 991.200771 L 394.099518 990.700516 L 392.798073 990.700516 L 397.999946 981.000254 " transform="matrix(0.99949, 0, 0, -0.99949, 0, 1190.023158)"/><path fill="none" stroke-width="1.41732" stroke-linecap="round" stroke-linejoin="round" stroke="#e8eaed" stroke-opacity="1" stroke-miterlimit="10" d="M 385.700701 981.000254 L 385.700701 990.700516 " transform="matrix(0.99949, 0, 0, -0.99949, 0, 1190.023158)"/><path fill="none" stroke-width="1.41732" stroke-linecap="round" stroke-linejoin="round" stroke="#e8eaed" stroke-opacity="1" stroke-miterlimit="10" d="M 413.800976 981.000254 L 407.199952 981.000254 L 405.499866 981.50051 L 404.60097 982.000765 L 403.698165 982.899661 L 403.299525 984.900682 L 403.299525 990.700516 L 403.698165 992.701537 L 404.60097 993.698139 L 405.499866 994.100689 L 407.199952 994.600944 L 409.900549 994.600944 L 411.600635 994.100689 L 412.499531 993.698139 L 413.398427 992.701537 L 413.800976 990.700516 L 413.800976 987.800599 L 403.299525 987.800599 " transform="matrix(0.99949, 0, 0, -0.99949, 0, 1190.023158)"/><path fill="none" stroke-width="1.41732" stroke-linecap="round" stroke-linejoin="round" stroke="#e8eaed" stroke-opacity="1" stroke-miterlimit="10" d="M 429.598099 981.000254 L 423.000983 981.000254 L 421.300897 981.50051 L 420.398092 982.000765 L 419.499196 982.899661 L 419.100555 984.900682 L 419.100555 990.700516 L 419.499196 992.701537 L 420.398092 993.698139 L 421.300897 994.100689 L 423.000983 994.600944 L 425.599965 994.600944 L 427.401666 994.100689 L 428.300562 993.698139 L 429.199458 992.701537 L 429.598099 990.700516 L 429.598099 987.800599 L 419.100555 987.800599 " transform="matrix(0.99949, 0, 0, -0.99949, 0, 1190.023158)"/><path fill="none" stroke-width="1.41732" stroke-linecap="round" stroke-linejoin="round" stroke="#e8eaed" stroke-opacity="1" stroke-miterlimit="10" d="M 434.901586 994.600944 L 440.099551 981.000254 L 445.39913 994.600944 " transform="matrix(0.99949, 0, 0, -0.99949, 0, 1190.023158)"/><path fill="none" stroke-width="1.41732" stroke-linecap="round" stroke-linejoin="round" stroke="#e8eaed" stroke-opacity="1" stroke-miterlimit="10" d="M 450.601003 994.600944 L 450.601003 981.000254 " transform="matrix(0.99949, 0, 0, -0.99949, 0, 1190.023158)"/><path fill="none" stroke-width="1.41732" stroke-linecap="round" stroke-linejoin="round" stroke="#e8eaed" stroke-opacity="1" stroke-miterlimit="10" d="M 455.900582 981.000254 L 455.900582 994.600944 L 463.799143 994.600944 L 465.100588 994.100689 L 465.999485 993.201792 L 466.398125 992.201282 L 466.398125 981.000254 " transform="matrix(0.99949, 0, 0, -0.99949, 0, 1190.023158)"/><path fill="none" stroke-width="1.41732" stroke-linecap="round" stroke-linejoin="round" stroke="#e8eaed" stroke-opacity="1" stroke-miterlimit="10" d="M 482.199156 981.000254 L 475.598132 981.000254 L 473.898046 981.50051 L 472.99915 982.000765 L 472.100254 982.899661 L 471.701613 984.900682 L 471.701613 990.700516 L 472.100254 992.701537 L 472.99915 993.698139 L 473.898046 994.100689 L 475.598132 994.600944 L 482.199156 994.600944 L 482.199156 978.999233 L 481.800515 977.099827 L 480.901619 975.599061 L 479.600174 975.098806 L 471.701613 975.098806 " transform="matrix(0.99949, 0, 0, -0.99949, 0, 1190.023158)"/><path fill="none" stroke-width="1.41732" stroke-linecap="round" stroke-linejoin="round" stroke="#e8eaed" stroke-opacity="1" stroke-miterlimit="10" d="M 385.700701 954.70168 L 386.599598 956.100831 L 387.901043 957.101342 L 389.698835 957.601597 L 392.301726 957.601597 L 394.099518 957.101342 L 395.400963 956.100831 L 396.299859 954.70168 L 396.299859 952.700659 L 395.400963 950.801252 L 385.700701 938.099459 L 396.299859 938.099459 " transform="matrix(0.99949, 0, 0, -0.99949, 0, 1190.023158)"/><path fill="none" stroke-width="1.41732" stroke-linecap="round" stroke-linejoin="round" stroke="#e8eaed" stroke-opacity="1" stroke-miterlimit="10" d="M 412.10089 951.801763 L 401.501732 938.099459 " transform="matrix(0.99949, 0, 0, -0.99949, 0, 1190.023158)"/><path fill="none" stroke-width="1.41732" stroke-linecap="round" stroke-linejoin="round" stroke="#e8eaed" stroke-opacity="1" stroke-miterlimit="10" d="M 401.501732 951.801763 L 412.10089 938.099459 " transform="matrix(0.99949, 0, 0, -0.99949, 0, 1190.023158)"/></svg>